<?xml version="1.0" encoding="utf-8"?>
<!-- Generator: Adobe Illustrator 26.5.0, SVG Export Plug-In . SVG Version: 6.00 Build 0)  -->
<svg version="1.1" id="Layer_1" xmlns="http://www.w3.org/2000/svg" xmlns:xlink="http://www.w3.org/1999/xlink" x="0px" y="0px"
	 viewBox="0 0 1920 588.6" style="enable-background:new 0 0 1920 588.6;" xml:space="preserve">
<style type="text/css">
	.st0{fill:url(#SVGID_1_);}
	.st1{fill:url(#SVGID_00000100369591497366077260000012400084248661197959_);}
	.st2{fill:url(#SVGID_00000154383487921731817510000010255791138012894384_);}
	.st3{fill:url(#SVGID_00000063592269352649806590000015136769833300809362_);}
	.st4{fill:url(#SVGID_00000057847718351623459880000001964862609420290473_);}
	.st5{fill:url(#SVGID_00000088820558378591717440000012679177527307353239_);}
	.st6{fill:url(#SVGID_00000002372986578413708500000000912220662268177074_);}
	.st7{fill:url(#SVGID_00000137101415180941678230000007455925692459174586_);}
	.st8{clip-path:url(#SVGID_00000104678919658620664640000007154267786392404358_);}
	.st9{fill:url(#SVGID_00000098903491658355335360000008550776456165023373_);}
	.st10{fill:url(#SVGID_00000126309488114085470150000006057640405384364223_);}
	.st11{fill:url(#SVGID_00000168824621871803253780000011844889869512467116_);}
	.st12{fill:url(#SVGID_00000080173226547203087490000008096541256044579506_);}
	.st13{fill:url(#SVGID_00000165196395755800259650000013649358086008047755_);}
	.st14{fill:url(#SVGID_00000153691635720934153220000011667952188877128334_);}
	.st15{fill:url(#SVGID_00000053525948313725169600000012481572313489686665_);}
	.st16{fill:url(#SVGID_00000049224016697658675210000008923956861933465021_);}
	.st17{fill:url(#SVGID_00000022541445615326276120000018162763666370399903_);}
	.st18{fill:#FFFFFF;}
	.st19{fill:#452899;}
	.st20{fill:#2A2A32;}
	.st21{fill:#33313F;}
	.st22{fill:url(#SVGID_00000040566420871318954750000007620609574019383683_);}
	.st23{fill:url(#SVGID_00000078723424255292574490000014037891921382567061_);}
	.st24{fill:url(#SVGID_00000094587020928838530180000004872579844131060658_);}
	.st25{fill:url(#SVGID_00000122703330542600993550000014436867837238699150_);}
	.st26{fill:url(#SVGID_00000067228139941489260150000014196989195114768256_);}
	.st27{fill:url(#SVGID_00000035524832915135046900000003727552261862095031_);}
	.st28{fill:url(#SVGID_00000180348878161505760900000017152355606670985884_);}
	.st29{fill:url(#SVGID_00000096028949952119608220000012962911396438275261_);}
	.st30{fill:url(#SVGID_00000103244772398923363670000013765679467399641228_);}
	.st31{fill:url(#SVGID_00000098202051307708221950000002657728056599686551_);}
	.st32{fill:url(#SVGID_00000174579465403439861500000005120560880614121372_);}
	.st33{fill:url(#SVGID_00000176022728050352371250000016713066872097530047_);}
	.st34{fill:url(#SVGID_00000033366957600887554470000014870831743510283413_);}
	.st35{fill:url(#SVGID_00000014603655448199983670000001481787066109560964_);}
	.st36{fill:url(#SVGID_00000144331758883096249100000001285267964718458012_);}
	.st37{fill:url(#SVGID_00000040571360512552797950000004028166904322133890_);}
	.st38{fill:url(#SVGID_00000109715725262669319420000014576621991460120216_);}
	.st39{fill:url(#SVGID_00000090275535176199605580000001105560614878097026_);}
	.st40{fill:url(#SVGID_00000055706739011306417260000005927282969809114047_);}
	.st41{fill:url(#SVGID_00000124153783178547957980000016104297784364983225_);}
	.st42{fill:url(#SVGID_00000047781723704221898340000000331840576624658337_);}
	.st43{fill:url(#SVGID_00000049199864393419341350000000037735669224465796_);}
	.st44{fill:url(#SVGID_00000062899900175138305470000000642405188609375669_);}
	.st45{fill:url(#SVGID_00000096780372314502548660000013083957918160965548_);}
	.st46{fill:url(#SVGID_00000104705823503184792750000007833229482627202446_);}
	.st47{fill:url(#SVGID_00000105428246691409404950000013607856172972897666_);}
	.st48{fill:url(#SVGID_00000110470438923358725560000009157041901835752079_);}
	.st49{fill:url(#SVGID_00000018959850202406512130000006174933298939975571_);}
	.st50{fill:url(#SVGID_00000165226966545897120170000016243804128017663900_);}
	.st51{fill:url(#SVGID_00000000910065559954710140000008887562790603329154_);}
	.st52{fill:url(#SVGID_00000181055481811358679830000001109323828029213614_);}
	.st53{fill:url(#SVGID_00000177449728355946143720000003623321939567969175_);}
	.st54{fill:url(#SVGID_00000030456679813488026950000009958167475537903260_);}
	.st55{fill:url(#SVGID_00000015343795908589522340000003208911989616130471_);}
	.st56{fill:url(#SVGID_00000105392185578709199290000015960211162496641202_);}
	.st57{fill:url(#SVGID_00000134213916678052840960000010542400788972724101_);}
	.st58{fill:url(#SVGID_00000056396447552112972830000011457905082867900819_);}
	.st59{fill:url(#SVGID_00000102529683645259059810000001051640816441579181_);}
	.st60{fill:url(#SVGID_00000103223251923686842350000011357404154559221404_);}
	.st61{fill:url(#SVGID_00000111169765281524509570000000495835487369218969_);}
	.st62{fill:url(#SVGID_00000133487440543759785460000002109830462325679274_);}
	.st63{fill:url(#SVGID_00000175291760022109101610000004519258000693453212_);}
	.st64{fill:url(#SVGID_00000005982636943839159340000015207458265158622607_);}
	.st65{fill:url(#SVGID_00000117676655317409090790000007149293361178559673_);}
	.st66{fill:url(#SVGID_00000057866675860988605070000014266004759219137960_);}
	.st67{fill:url(#SVGID_00000069384736173095439270000012771263475883450288_);}
	.st68{fill:url(#SVGID_00000123438624773040011590000015336820904205821067_);}
	.st69{fill:url(#SVGID_00000160894428914711157180000010066545038582290329_);}
	.st70{fill:url(#SVGID_00000166638079976151271680000004056816617303969717_);}
	.st71{fill:url(#SVGID_00000111894493762071693180000001627464805424563615_);}
	.st72{fill:url(#SVGID_00000132795033071760393890000004813499600686720680_);}
	.st73{fill:url(#SVGID_00000128482608759411968110000006103647100778546058_);}
	.st74{fill:url(#SVGID_00000150074647027570409920000011160217789891657402_);}
	.st75{fill:url(#SVGID_00000182516868959150480490000012474692084207638913_);}
	.st76{fill:url(#SVGID_00000096034130186126794010000005025664517981630636_);}
	.st77{fill:url(#SVGID_00000039851264195724928140000009500009543456736402_);}
	.st78{fill:url(#SVGID_00000129204620272860102720000012671516141903973774_);}
	.st79{fill:url(#SVGID_00000078759743461694603520000000334084931103531685_);}
	.st80{fill:url(#SVGID_00000137124859266427025690000009366579740947628690_);}
	.st81{fill:url(#SVGID_00000148658650936484508240000003641041704322508177_);}
	.st82{fill:url(#SVGID_00000176747617151203039750000000647791013415640500_);}
	.st83{fill:url(#SVGID_00000111902540121117124680000015978706299022866067_);}
	.st84{fill:url(#SVGID_00000114058870840540412900000005347400392615195821_);}
	.st85{fill:url(#SVGID_00000040542295309868584130000002862920619707414409_);}
	.st86{fill:url(#SVGID_00000129918468598410711330000013545017652461175430_);}
	.st87{fill:url(#SVGID_00000039092305626967205470000015681019712562241695_);}
	.st88{fill:url(#SVGID_00000082341647626193540430000004092862357171671191_);}
	.st89{fill:url(#SVGID_00000103254396706355338180000017239374934029339060_);}
</style>
<g>
	<linearGradient id="SVGID_1_" gradientUnits="userSpaceOnUse" x1="565.9202" y1="240.0549" x2="713.9894" y2="240.0549">
		<stop  offset="2.077088e-02" style="stop-color:#391E89"/>
		<stop  offset="0.5254" style="stop-color:#482A9C"/>
		<stop  offset="1" style="stop-color:#5333A9"/>
	</linearGradient>
	<path class="st0" d="M657.6,175.5c40,0,56.4,16,56.4,52v25.1c0,36-16.4,52-56.4,52h-86.1c-3.7,0-5.5-1.8-5.5-5.5V181
		c0-3.7,1.8-5.5,5.5-5.5H657.6z M593.9,276.2c0,1.7,0.7,2.4,2.4,2.4h60.5c21.8,0,29.1-6.6,29.1-28.4v-20.3
		c0-21.8-7.4-28.4-29.1-28.4h-60.5c-1.7,0-2.4,0.7-2.4,2.4V276.2z"/>
	
		<linearGradient id="SVGID_00000085245498797110372750000011977208801437538992_" gradientUnits="userSpaceOnUse" x1="755.4921" y1="240.0549" x2="783.5196" y2="240.0549">
		<stop  offset="2.077088e-02" style="stop-color:#391E89"/>
		<stop  offset="0.5254" style="stop-color:#482A9C"/>
		<stop  offset="1" style="stop-color:#5333A9"/>
	</linearGradient>
	<path style="fill:url(#SVGID_00000085245498797110372750000011977208801437538992_);" d="M779.5,175.5c2.8,0,4.1,1.3,4.1,4.1v121
		c0,2.8-1.3,4.1-4.1,4.1h-19.9c-2.8,0-4.1-1.3-4.1-4.1v-121c0-2.8,1.3-4.1,4.1-4.1H779.5z"/>
	
		<linearGradient id="SVGID_00000033365795714255912040000012754904165072885406_" gradientUnits="userSpaceOnUse" x1="816.9827" y1="240.0549" x2="991.256" y2="240.0549">
		<stop  offset="2.077088e-02" style="stop-color:#391E89"/>
		<stop  offset="0.5254" style="stop-color:#482A9C"/>
		<stop  offset="1" style="stop-color:#5333A9"/>
	</linearGradient>
	<path style="fill:url(#SVGID_00000033365795714255912040000012754904165072885406_);" d="M908.4,175.5c9.6,0,15.1,2.8,21.2,14
		l61,110.8c1.3,2.6,0.7,4.2-2.2,4.2H965c-2.4,0-3.5-0.6-4.2-2.2l-12.2-22.5h-88.3l-12,22.5c-0.9,1.7-1.8,2.2-4.2,2.2h-24.2
		c-3,0-3.5-1.7-2.2-4.2l60.5-110.8c5.9-11.2,11.6-14,19.4-14H908.4z M935.5,255.9L906.9,203c-0.6-0.9-1.3-1.3-2.2-1.3h-1.1
		c-0.9,0-1.5,0.4-2,1.3l-28.4,52.9H935.5z"/>
	
		<linearGradient id="SVGID_00000057836513982832480590000011980913071193452684_" gradientUnits="userSpaceOnUse" x1="1022.6998" y1="240.0549" x2="1161.7319" y2="240.0549">
		<stop  offset="2.077088e-02" style="stop-color:#391E89"/>
		<stop  offset="0.5254" style="stop-color:#482A9C"/>
		<stop  offset="1" style="stop-color:#5333A9"/>
	</linearGradient>
	<path style="fill:url(#SVGID_00000057836513982832480590000011980913071193452684_);" d="M1152.9,175.5c2.6,0,4.1,1.3,4.1,4.1v17.9
		c0,2.6-1.5,4.1-4.1,4.1h-92.4c-6.6,0-9.8,3.1-9.8,10v6.3c0,6.6,2.9,9.4,9.8,9.4h69c20.7,0,32.3,11.8,32.3,32.5v14.9
		c0,19-11.4,30.1-32.6,30.1h-102.2c-2.8,0-4.1-1.3-4.1-4.1v-17.9c0-2.6,1.3-4.1,4.1-4.1h96.8c6.5,0,9.8-3.1,9.8-10v-7.6
		c0-6.6-2.8-9.4-9.6-9.4h-69.1c-20.7,0-32.1-11.8-32.1-32.5v-13.6c0-19,11.2-30.1,32.5-30.1H1152.9z"/>
	
		<linearGradient id="SVGID_00000126315671197882094110000004008673420613456771_" gradientUnits="userSpaceOnUse" x1="1201.3905" y1="240.0549" x2="1229.4181" y2="240.0549">
		<stop  offset="2.077088e-02" style="stop-color:#391E89"/>
		<stop  offset="0.5254" style="stop-color:#482A9C"/>
		<stop  offset="1" style="stop-color:#5333A9"/>
	</linearGradient>
	<path style="fill:url(#SVGID_00000126315671197882094110000004008673420613456771_);" d="M1225.4,175.5c2.8,0,4.1,1.3,4.1,4.1v121
		c0,2.8-1.3,4.1-4.1,4.1h-19.9c-2.8,0-4.1-1.3-4.1-4.1v-121c0-2.8,1.3-4.1,4.1-4.1H1225.4z"/>
	
		<linearGradient id="SVGID_00000075156546497697588360000007800094639599198091_" gradientUnits="userSpaceOnUse" x1="1271.0964" y1="240.0549" x2="1420.0878" y2="240.0549">
		<stop  offset="2.077088e-02" style="stop-color:#391E89"/>
		<stop  offset="0.5254" style="stop-color:#482A9C"/>
		<stop  offset="1" style="stop-color:#5333A9"/>
	</linearGradient>
	<path style="fill:url(#SVGID_00000075156546497697588360000007800094639599198091_);" d="M1416,175.5c2.6,0,4.1,1.3,4.1,4.1v18.1
		c0,2.8-1.5,4.1-4.1,4.1h-92.4c-19,0-24.5,5.7-24.5,25.3v26.6c0,19.5,5.5,25.1,24.5,25.1h60.9c6.5,0,9.2-2.8,9.2-11.1v-13.6
		c0-1.8-0.7-2.6-2.2-2.6h-54c-2.6,0-4.1-1.3-4.1-4.1V231c0-2.6,1.5-4.1,4.1-4.1h76.9c3.7,0,5.5,1.8,5.5,5.5v43.9
		c0,20.7-7.9,28.2-22.9,28.2h-74.3c-37.4,0-51.6-13.3-51.6-48.7v-31.7c0-35.4,14.2-48.7,51.6-48.7H1416z"/>
	
		<linearGradient id="SVGID_00000033362608484383516410000015488283228270730170_" gradientUnits="userSpaceOnUse" x1="1461.7755" y1="240.0549" x2="1604.3126" y2="240.0549">
		<stop  offset="2.077088e-02" style="stop-color:#391E89"/>
		<stop  offset="0.5254" style="stop-color:#482A9C"/>
		<stop  offset="1" style="stop-color:#5333A9"/>
	</linearGradient>
	<path style="fill:url(#SVGID_00000033362608484383516410000015488283228270730170_);" d="M1600.1,175.5c2.8,0,4.2,1.3,4.2,4.1v121
		c0,2.8-1.5,4.1-4.2,4.1h-19.9c-2.6,0-4.1-1.3-4.1-4.1V252h-86.3v48.5c0,2.8-1.3,4.1-4.1,4.1h-19.9c-2.8,0-4.1-1.3-4.1-4.1v-121
		c0-2.8,1.3-4.1,4.1-4.1h19.9c2.8,0,4.1,1.3,4.1,4.1V227h86.3v-47.4c0-2.8,1.5-4.1,4.1-4.1H1600.1z"/>
	
		<linearGradient id="SVGID_00000050629943529945620280000007975904200950373532_" gradientUnits="userSpaceOnUse" x1="1639.1777" y1="240.0549" x2="1791.672" y2="240.0549">
		<stop  offset="2.077088e-02" style="stop-color:#391E89"/>
		<stop  offset="0.5254" style="stop-color:#482A9C"/>
		<stop  offset="1" style="stop-color:#5333A9"/>
	</linearGradient>
	<path style="fill:url(#SVGID_00000050629943529945620280000007975904200950373532_);" d="M1787.4,175.5c2.8,0,4.2,1.3,4.2,4.1v18.1
		c0,2.8-1.5,4.1-4.2,4.1h-58.1v98.8c0,2.8-1.1,4.1-3.9,4.1h-20.1c-2.6,0-4.1-1.3-4.1-4.1v-98.8h-58.1c-2.6,0-4.1-1.3-4.1-4.1v-18.1
		c0-2.8,1.5-4.1,4.1-4.1H1787.4z"/>
</g>
<g>
	<defs>
		<path id="SVGID_00000173868428594838469330000017660436776765257897_" d="M468.1,371.9l0-175.6c0-17.4-9.3-33.4-24.3-42.1
			l-152-87.8c-15.1-8.7-33.6-8.7-48.7,0L91,154.2C76,162.9,66.7,179,66.7,196.4l0,175.6c0,17.4,9.3,33.4,24.3,42.1l152,87.8
			c15.1,8.7,33.6,8.7,48.7,0l152-87.8C458.8,405.4,468.1,389.3,468.1,371.9z"/>
	</defs>
	<clipPath id="SVGID_00000028288765964411881090000017658931599737808273_">
		<use xlink:href="#SVGID_00000173868428594838469330000017660436776765257897_"  style="overflow:visible;"/>
	</clipPath>
	<g style="clip-path:url(#SVGID_00000028288765964411881090000017658931599737808273_);">
		
			<radialGradient id="SVGID_00000161593874975391464660000012865809537569298309_" cx="-3664.5405" cy="-1422.7618" r="309.7331" gradientTransform="matrix(0.7012 0 0 0.7012 2835.7825 1283.2494)" gradientUnits="userSpaceOnUse">
			<stop  offset="2.077088e-02" style="stop-color:#361A86"/>
			<stop  offset="0.108" style="stop-color:#31187E"/>
			<stop  offset="0.3603" style="stop-color:#27136E"/>
			<stop  offset="0.6402" style="stop-color:#211064"/>
			<stop  offset="1" style="stop-color:#1F0F61"/>
		</radialGradient>
		<path style="fill:url(#SVGID_00000161593874975391464660000012865809537569298309_);" d="M442.1,417.5c0.8,0.9,1.7-0.2,2.9,0.2
			c-4.6,2.9-9.4,5.1-14.1,7.3c-2.4,1.2-5.1,1.8-7.4,3.4c-1.8,2.1-4.3,2.9-6.7,3.7c-11.4,3.7-23.1,5.8-34.9,7.2
			c-11.2,1.4-22.5,1.9-33.7,1.6c-6-0.2-12-0.7-17.9-1.5c-5.7-2.2-11.8-2.7-17.8-4.1c-11.7-2.8-23.1-6.5-34.2-10.9
			c-17.9-7.1-34.6-16.4-50.3-27.7c-7-5.1-13.4-10.8-20-16.4c-5.1-4.3-9.6-9.2-14.3-13.8c-1.2-1.2-2.6-1.9-4-2.9
			c-0.6-0.4-1-0.9-1.4-1.5c-0.6-1.6-1.7-2.7-3-3.7c-0.2-0.2-0.3-0.4-0.5-0.6c-5.1-7.6-11.1-14.5-16.5-21.9c-1.1-1.5-2.1-3-3.5-4.1
			c4.6,11.8,10.1,23,16.3,33.9c13.3,23.4,29.8,44.2,49.5,62.4c20.3,18.7,43.2,33.5,68.7,44.4c9,3.8,18.1,7.1,27.5,9.9
			c1.2,0.4,2.8,0.5,3.2,2.1c-6.1,4.2-12.5,7.8-18.9,11.4c-7.7,4.4-15.1,9.4-23.4,12.9c-12,5.1-24.5,5.8-36.8,1.7
			c-8.6-2.9-16.6-7.6-24.4-12.6c-3.1-1.9-6.2-3.8-9.2-5.7c-2-2.2-4.5-3.7-6.7-5.5c-6.6-5.3-11.9-11.8-17.3-18.1
			c-8.9-10.3-16.7-21.3-23.4-33.1c-11.4-20-19.4-41.2-23.7-63.9c-3-15.9-3.8-32-3-48.1c0.8-17.6,4.2-34.8,9.1-51.7
			c2.5-8.4,5.5-16.5,8.7-25.1c-5.8,3.2-10.8,6.8-15.7,10.6c-17.9,13.9-32.4,30.8-43.8,50.3c-9.8,16.8-16.7,34.7-21.3,53.6
			c-2.7,11.3-4.7,22.8-5.5,34.4c-0.1,1.9-0.6,3.8-0.5,5.7c0,0.9-0.2,1.8-1.1,2.3c-1.3,0.5-1.9-0.3-2.6-1.3
			c-7.3-9.9-10.9-20.9-10.4-33.2c1-1.7,0.6-3.6,0.7-5.3c0.6-11,3.6-21.5,7.3-31.8c7.4-20.7,18.2-39.6,31.5-57.1
			c9.1-11.9,19.1-22.9,30.2-33c14.7-13.4,30.8-24.9,48.3-34.4c20-10.8,41.2-18.4,63.4-22.8c14.1-2.7,28.4-3.1,42.7-2.5
			c4.6,0.2,9.2,0.8,13.8,1.5c-4.3-2.9-8.9-5.2-13.4-7.7c-18.4-9.8-37.6-17.6-57.5-23.7c-13.1-4-26.5-7.1-40.2-8.6
			c-10.9-1.2-21.9-2.1-32.9-2.1c-16.2,0-32.1,2.1-47.8,5.6c-6.1,1.4-12.3,2.6-17.9,5.6c-1.1,0.6-2.2,0.9-3.2-0.3
			c7.2-4,14.3-8,21.5-12c1.2-0.7,2.5-1.1,3.7-1.6c8.5-4,17.7-4.6,26.8-5.8c12.2-1.7,24.4-2.6,36.7-2.3c32.7,0.7,64,7.3,93.5,21.9
			c17.1,8.5,33.1,18.8,47.5,31.3c11.2,9.7,21.6,20.3,31,31.8c12.8,15.6,23.8,32.4,33.1,50.3c1.7,3.2,2.6,6.7,3.9,10.1
			c0.8-2.1-0.1-4.2-0.4-6.1c-1.5-9.3-2-18.8-3.5-28.1c-1.3-8.3-2.2-16.6-3.7-24.8c-3.8-20-10.2-39.2-18.4-57.8
			c-8.6-19.5-19.6-37.6-32.4-54.6c-7.3-9.8-14.7-19.5-23.7-27.8c-6.2-5.6-11.8-11.9-18.9-16.5c-1-0.6-2-1.4-1.2-2.9
			c7.1,1.3,13.3,4.6,19.4,8.4c1.9,1.2,3.8,2.4,5.8,3.6c8.1,6.1,14.9,13.6,22,20.7c12.6,12.7,22.9,27,31.9,42.4
			c6.9,11.9,13.2,24.1,17.6,37.1c4.8,14.3,9,28.7,11.1,43.8c2,14.1,2.5,28.2,2,42.4c-0.3,9.3-1.8,18.4-3.5,27.5
			c-0.2,0.8-0.4,1.6-0.9,2.3c-1.3,1.4-2.8,1-4.3,0.6c-3.3-1.9-5.5-5-8-7.8c-5.3-6-11.2-11.1-17.2-16.3c-9.7-8.5-20.2-15.8-31.6-21.9
			c-14.9-7.9-30.7-13.2-47.6-14.6c-20.2-1.7-39,3-57,11.5c-15.1,7.1-28.6,16.7-41,27.7c-8.5,7.6-16.4,15.7-23.8,24.4
			c-2.5,3-2.5,3,0.5,6.6c9,10.7,19,20.6,29.9,29.5c13.2,10.9,27.5,19.8,43.4,26c10.7,4.2,21.8,6.7,33.3,7.7
			c7.9,0.7,15.6-0.5,23.4-0.9c3.1,0.8,6.1-0.3,9.1-1c21.8-4.8,40.7-15.4,58-29.2c9-7.2,17.4-15.1,25.4-23.4c0.9-0.9,1.6-2.3,3.3-2.1
			c1,1,0.7,2,0.2,3c-3.7,7-6.3,14.5-10.4,21.3c-6.1,10.1-12.7,19.9-20,28.7c6-4.8,12.3-9.7,18.4-14.9c4.1-3.6,8.1-7.3,12.2-10.9
			c21.1-18.8,38.9-40.4,53.3-64.6c13.6-22.9,23.7-47.3,29-73.6c0.8-3.8,1.8-7.6,2.6-11.5c0.2-0.8,0.3-1.6,1.2-2c1-1.1,1.1,0,1.3,0.6
			c1,3.3,1.3,6.7,2,10c1,4.8,0.2,9.7,0.5,14.5c-0.1,9.8-2.4,19.3-5.3,28.6c-3.3,10.4-7.6,20.5-12.4,30.3
			c-5.4,10.9-11.7,21.2-18.8,31c-5.5,7.6-11.4,14.9-17.8,21.8c-4.1,4.5-8.3,8.9-12.7,13.1c-14.2,13.7-29.9,25.4-47,35.3
			c-19.3,11.2-39.6,19.7-61.3,24.8c-8.5,2-17.1,3.4-25.9,3.2c-2.7-0.1-5.2,0.6-7.9,0.6c-8.1-0.1-16.2-0.6-24.9-1.7
			c7.5,3.9,14.3,7.7,21.4,10.9c11.3,5.2,23.1,9.5,34.9,13.4c12.8,4.3,25.8,7.6,39.2,9.5c10.2,1.4,20.4,2.4,30.7,2.8
			c12.8,0.5,25.6,0.1,38.3-2c12.4-2,24.6-4.7,36.8-7.9C440.2,417.1,441.2,416.7,442.1,417.5z"/>
		
			<linearGradient id="SVGID_00000110432376458414927670000005522254454844454062_" gradientUnits="userSpaceOnUse" x1="163.0264" y1="420.5433" x2="418.6115" y2="420.5433">
			<stop  offset="2.077088e-02" style="stop-color:#391E89"/>
			<stop  offset="0.5254" style="stop-color:#482A9C"/>
			<stop  offset="1" style="stop-color:#5333A9"/>
		</linearGradient>
		<path style="fill:url(#SVGID_00000110432376458414927670000005522254454844454062_);" d="M251,507.4c-2.1-1.7-4.1-3.4-6.2-5.2
			c-4.3-3.7-8.5-7.5-12.5-11.5c-16.1-16-29.6-34.5-40-54.6c-10.6-20.5-16.9-43.1-21.4-65.7c-1.7-8.7-8.1-30.3-7.8-40.3
			c0.1-2.4,6.8,9.7,8.4,11.4c1.6,1.7,5.1,1.8,6.5,3.7c5.4,7.1,10.8,14.2,16.4,21.2c1.9,2.4,4.3,4.5,6.6,6.7c1.7,1.7,3.5,3.5,5.2,5.2
			c6.4,6.3,13.4,11.9,20.2,17.7c5.9,5.1,12.5,9.2,18.9,13.5c6.3,4.1,13.1,7.4,19.8,10.9c11.5,6,23.6,10.5,35.9,14.3
			c9.8,3.1,20,5,30.1,6.6c12.1,2,24.3,2.1,36.5,1.6c7.2-0.3,14.4-1.4,21.5-2.8c8.7-1.7,17.1-4,25.4-7.1c1.4-0.5,2.7-1.2,4.2-1.2
			c-5.3,3.8-11,6.9-16.6,10.2c-11.5,6.9-23,13.8-34.7,20.4c-12.3,6.9-24.4,14-36.4,21.3c-12,7.2-24,14.4-36.2,21.3
			c-11.1,6.2-23.7,8-36.1,5.3C255.9,509.6,253.2,509.1,251,507.4C251,507.4,251,507.4,251,507.4z"/>
		
			<linearGradient id="SVGID_00000041982496293178541520000015869934469202738577_" gradientUnits="userSpaceOnUse" x1="112.7079" y1="357.755" x2="195.1686" y2="149.5208">
			<stop  offset="2.077088e-02" style="stop-color:#6848C1"/>
			<stop  offset="2.612700e-02" style="stop-color:#6848C1"/>
			<stop  offset="0.6585" style="stop-color:#492B9E"/>
			<stop  offset="1" style="stop-color:#3D2091"/>
		</linearGradient>
		<path style="fill:url(#SVGID_00000041982496293178541520000015869934469202738577_);" d="M85.2,152.8c0.6-0.1,1.4,0.1,1.9-0.2
			c8.4-4.9,17.9-6,27.1-7.8c16.7-3.4,33.7-4.6,50.7-3.8c27.5,1.2,54.2,6.8,80,16.5c18.8,7.1,36.9,15.5,54.2,25.6
			c0.3,0.2,0.7,0.3,0.9,0.5c0.5,0.4,1.5,0.7,1.1,1.6c-0.4,0.8-1.3,0.5-2,0.4c-2.5-0.3-5-0.7-7.5-1.1c-9.4-1.5-18.9-1.3-28.3-0.9
			c-22.1,1-43.3,6.6-63.6,15.1c-21.6,9-41.6,20.9-59.6,36c-22.2,18.6-41.1,40.1-55.7,65.2c-11.2,19.3-19.3,39.7-22.7,61.9
			c-0.4,2.5,0.1,5.3-1.7,7.5c-1-39.1-0.3-78.3-0.5-117.4c-0.1-16.6-0.1-33.1,0.1-49.7c0.1-6.3,0.2-12.7,2.1-18.9
			C65.8,170.2,73.7,160.1,85.2,152.8z"/>
		
			<linearGradient id="SVGID_00000108278867829099453530000001455857724027326358_" gradientUnits="userSpaceOnUse" x1="286.4201" y1="332.2737" x2="579.614" y2="298.9562">
			<stop  offset="2.077088e-02" style="stop-color:#3A208E"/>
			<stop  offset="0.6194" style="stop-color:#5538AB"/>
			<stop  offset="1" style="stop-color:#6243B8"/>
		</linearGradient>
		<path style="fill:url(#SVGID_00000108278867829099453530000001455857724027326358_);" d="M442.1,417.5c-9.1,3.2-18.6,5.2-28,7
			c-11.9,2.2-23.8,3.9-35.9,4c-25.7,0.4-50.9-2.6-75.6-9.9c-16.5-4.9-32.6-11-48.2-18.1c-5.4-2.5-10.6-5.6-15.9-8.4
			c-1.2-0.6-2.4-1.3-3.3-3c7.6,1.3,14.9,1.8,22.2,2c24.3,0.7,47.5-4.2,69.9-13.5c20-8.2,38.6-18.8,55.8-31.9
			c14.1-10.7,26.8-22.9,38.4-36.3c12.5-14.4,23.2-30.1,31.7-47.2c8.7-17.5,15.7-35.6,18-55.2c0.1-1.1,0.2-2.4,1-3.3
			c0.8,0.8,0.5,1.9,0.5,2.9c0,54.5,0.1,109.1,0,163.6c0,17.1-7,31.1-19.8,42.4C449.7,415.3,445.8,416.1,442.1,417.5z"/>
		
			<linearGradient id="SVGID_00000137125266234473804580000004447583776896111278_" gradientUnits="userSpaceOnUse" x1="332.8187" y1="103.1404" x2="392.7901" y2="233.9114">
			<stop  offset="2.077088e-02" style="stop-color:#6140B7"/>
			<stop  offset="0.5254" style="stop-color:#4F2FA4"/>
			<stop  offset="1" style="stop-color:#432397"/>
		</linearGradient>
		<path style="fill:url(#SVGID_00000137125266234473804580000004447583776896111278_);" d="M468.4,178.6c-0.9,8.5-3.2,16.8-5.3,25
			c-4.5,17.9-11.5,34.9-20.1,51.2c-8.9,16.9-19.6,32.6-31.8,47.2c-8.4,10.1-17.6,19.7-27.4,28.5c-10.5,9.4-20.9,18.9-32.4,27.1
			c-0.7,0.5-1.5,1-2.4,1.6c-0.5-1.3,0.4-1.8,0.9-2.4c9.4-11.9,18.3-24,24.9-37.7c2.3-4.7,4-9.6,6.7-14c0.3-0.5,0.2-1.2,0.3-1.8
			c-0.5-1.5,0.4-2.5,1.3-3.3c1.2-1.1,2-2.5,3.1-3.8c0.7-0.9,1.7-2,0.5-3.3c-0.2-0.2-0.3-0.5-0.4-0.7c-0.8-2-2.4-4-0.6-6.3
			c1-6.8,2.3-13.6,3.1-20.5c1.3-11,1.1-22.1,0.5-33.2c-0.5-8.3-1.5-16.4-2.8-24.6c-1.5-9.2-4.2-18-6.9-26.9
			c-8.5-28.6-22.9-54-41.5-77.1c-8.7-10.8-18.6-20.4-28.9-29.7c-1.3-1.1-3.1-1.9-3.2-4c5.9,2.4,11.2,6.1,16.7,9.3
			c36.6,21.3,73.4,42.2,109.7,63.9c5.2,3.1,10.3,6.2,15.4,9.3c5.8,3.7,10,9,13.8,14.5C464.3,170.5,467.2,174.1,468.4,178.6z"/>
		
			<linearGradient id="SVGID_00000160903818746270519420000011285604374414420625_" gradientUnits="userSpaceOnUse" x1="73.1408" y1="368.4502" x2="217.6499" y2="368.4502">
			<stop  offset="2.077088e-02" style="stop-color:#5433AB"/>
			<stop  offset="0.5482" style="stop-color:#422596"/>
			<stop  offset="1" style="stop-color:#371D89"/>
		</linearGradient>
		<path style="fill:url(#SVGID_00000160903818746270519420000011285604374414420625_);" d="M73.1,403.8c1.5-31.6,9-61.6,23.7-89.7
			c10.1-19.4,23.6-36.3,39.8-50.9c7-6.3,14.7-12,22.9-16.7c1-0.6,2.1-1.1,3.7-1.9c-1.6,4.3-3,8.1-4.4,11.9
			c-5.8,15.4-9.7,31.2-12.4,47.4c-2.3,14.2-2.8,28.4-2.1,42.7c1.1,20.5,5.4,40.5,12.8,59.7c8.9,23,21.5,43.7,37.5,62.4
			c6.8,8,14.1,15.7,22.3,22.4c0.4,0.3,0.9,0.7,0.5,1.3c-37.8-23.1-75.5-46.3-113.3-69.4C93.9,416.6,83.5,410.2,73.1,403.8z"/>
		
			<linearGradient id="SVGID_00000160870852255291200290000005738391725614792376_" gradientUnits="userSpaceOnUse" x1="309.0408" y1="182.3256" x2="117.4653" y2="92.3684">
			<stop  offset="2.077088e-02" style="stop-color:#48289F"/>
			<stop  offset="0.115" style="stop-color:#4E2EA5"/>
			<stop  offset="0.6896" style="stop-color:#6C51C3"/>
			<stop  offset="1" style="stop-color:#785ECF"/>
		</linearGradient>
		<path style="fill:url(#SVGID_00000160870852255291200290000005738391725614792376_);" d="M382.4,277c-5.3-13.8-13-26.4-21.3-38.6
			c-25.7-38-58.3-68.3-100.5-87.4c-19-8.6-38.9-14.1-59.7-16.8c-28.7-3.8-57-1.9-85.2,3.9c-1.8,0.4-3.4,1.2-5.3,1.1
			c4-3,8.4-5.3,12.7-7.8c28.9-16.9,57.8-33.7,86.6-50.6c2.1-0.7,4.2-0.7,6.4-0.1c26.8,7.8,51.1,20.6,73.3,37.3
			c10.6,8,20.5,16.9,29.6,26.6c23.2,24.9,40.4,53.5,52.3,85.3c4.2,11.3,8,22.6,10.4,34.4c0.8,4.1,1.6,8.2,2,12.3
			c0.1,0.5,0.2,1.2-0.4,1.4C382.7,278.3,382.9,277.2,382.4,277z"/>
		
			<linearGradient id="SVGID_00000081611498094305983160000015064006283426268807_" gradientUnits="userSpaceOnUse" x1="209.2157" y1="333.4151" x2="374.1373" y2="467.1015">
			<stop  offset="2.077088e-02" style="stop-color:#48289F"/>
			<stop  offset="0.115" style="stop-color:#4E2EA5"/>
			<stop  offset="0.6896" style="stop-color:#6C51C3"/>
			<stop  offset="1" style="stop-color:#785ECF"/>
		</linearGradient>
		<path style="fill:url(#SVGID_00000081611498094305983160000015064006283426268807_);" d="M330.1,438.2c2.5,1.1,5.2,0.7,7.8,0.9
			c28.8,2.2,57.1-0.6,84.5-10c0.4-0.1,0.8-0.4,1.2-0.6c0.3,0,0.7-0.1,0.8,0c0.8,0.7-0.3,0.8-0.5,0.9c-4.5,2.8-9,5.5-13.5,8.2
			c-25.7,15.1-51.5,30.2-77.2,45.3c-1,0.6-2.1,1.2-3.1,1.7c-17.7-5-34.6-11.7-50.8-20.4c-15-8.1-29-17.7-42-28.8
			c-21.1-18-38.7-38.9-53.2-62.5c-8.1-13.2-15.1-27-20.5-41.5c-0.2-0.6-1.2-1.4,0-2c0.1-0.1,0.5,0.4,0.8,0.6
			c6.4,8.3,12.5,16.9,19.2,25.1c0.7,0.9,1.7,1.7,2.2,2.8l0,0c0.9,1.4,2.4,2.3,3.2,3.8c0.4,0.4,0.7,0.8,1.1,1.1
			C228.3,403.6,274.1,430.4,330.1,438.2z"/>
		
			<linearGradient id="SVGID_00000051377296224836311170000016330936286155401094_" gradientUnits="userSpaceOnUse" x1="209.8642" y1="167.8019" x2="384.7253" y2="167.8019">
			<stop  offset="2.077088e-02" style="stop-color:#5433AB"/>
			<stop  offset="0.5482" style="stop-color:#422596"/>
			<stop  offset="1" style="stop-color:#371D89"/>
		</linearGradient>
		<path style="fill:url(#SVGID_00000051377296224836311170000016330936286155401094_);" d="M382.4,277c2.4,0.9,1.1-1,1-1.5
			c-1.2-5.4-2.3-10.8-3.8-16.2c-5.5-20.4-12.7-40.1-22.4-58.8c-8.8-16.9-19.3-32.7-31.8-47.2c-20-23.2-43.5-42-70.8-56
			c-12.7-6.6-26-11.9-39.7-15.9c-1.7-0.5-3.3-0.9-5.1-0.7c9.4-5.5,18.8-10.8,28-16.4c13.2-8,27.4-9.8,42.3-7c0.2,0,0.5,0.3,0.7,0.4
			c0,0.6,0.2,1,0.7,1.4C296.1,69.3,308,82,319,95.6c13.4,16.7,25,34.5,34.5,53.6c11.4,23,19.8,47.1,23.9,72.6
			c2.1,13.4,4.3,26.9,5.2,40.5c0.3,4.9,1.1,9.7,1.7,14.6c0.1,0.9,1,2.3-0.3,2.6C382.6,279.7,382.7,278,382.4,277z"/>
		<path class="st18" d="M286.3,359.7c-29.7,4.6-56.6-3.5-81.6-19.1c-19.9-12.4-36.8-28.2-51.5-46.3c-0.6-0.7-1.6-1.2-0.4-2.6
			c20.5-25.1,44.4-45.9,74.7-58.4c31.4-13,62.3-11.2,92.7,3.5c22.8,11,41.8,27,58.7,45.5c1,1.1,2.1,2.2,3.2,3.4
			c3,1.2,3.6,4.5,5.5,6.6l0-0.1c0.8,2-0.7,3.2-1.7,4.5c-6.1,7.5-12.7,14.5-19.8,21c-8.4,7.7-17.2,14.9-26.7,21.1
			c-15.3,10.1-31.9,17.3-50,20.7C288.3,359.8,287.3,359.7,286.3,359.7z"/>
		<path class="st19" d="M330.1,438.2c-8.8-0.5-17.4-2.4-26-4.4c-15.9-3.8-31.1-9.5-45.7-17c-16.9-8.7-32.4-19.4-46.7-32.1
			c-6.9-6.2-13.4-12.8-19.9-19.5c-0.7-0.7-1.5-1.3-1.7-2.4c4.2,2.6,7.2,6.4,10.6,9.7c17.5,16.6,36.5,31,58.2,42
			c16.3,8.3,33.3,14.8,50.9,19.3c6.1,1.6,12.3,2.5,18.4,3.7C328.9,437.7,329.6,437.7,330.1,438.2z"/>
		<path class="st20" d="M286.3,359.7c26.6-4.7,49.2-17.4,69.7-34.5c11-9.2,21.2-19.4,30.2-30.6c0.5-0.7,1.4-1.3,1.2-2.3
			c1.7,1.4,0.7,2.8-0.1,4c-1.7,2.4-3.6,4.7-5.4,7c-6,6.9-12.6,13.1-19.4,19.1c-9.1,7.9-18.8,15.2-29.3,21.3
			c-13.6,8-28.1,13.5-43.7,16.3C288.5,360.1,287.4,360.2,286.3,359.7z"/>
		<path class="st19" d="M185.8,357.9c-4.9-4.6-8.8-10.2-12.8-15.5c-3-4-6.2-7.9-8.6-12.3c2.7,2,4.2,4.9,6.2,7.4
			c4.8,6.1,9.5,12.3,14.2,18.5C185.2,356.5,185.8,357.1,185.8,357.9z"/>
		<path class="st21" d="M387.4,292.3c-2-2-3.8-4.3-5.5-6.6c1.2,0.3,2.5,0.9,3.7,0.1C385.4,288.2,386.5,290.2,387.4,292.3z"/>
		<path class="st19" d="M189,361.7c-1.3-1.1-2.7-2.1-3.2-3.8C187.2,358.9,188.6,359.9,189,361.7z"/>
		
			<radialGradient id="SVGID_00000082339019225089966430000011898298431369756038_" cx="-325.347" cy="-143.3901" r="20.0296" gradientTransform="matrix(2.4384 0 0 2.4384 1065.3291 642.4409)" gradientUnits="userSpaceOnUse">
			<stop  offset="2.077088e-02" style="stop-color:#361A86"/>
			<stop  offset="0.108" style="stop-color:#31187E"/>
			<stop  offset="0.3603" style="stop-color:#27136E"/>
			<stop  offset="0.6402" style="stop-color:#211064"/>
			<stop  offset="1" style="stop-color:#1F0F61"/>
		</radialGradient>
		<path style="fill:url(#SVGID_00000082339019225089966430000011898298431369756038_);" d="M290.9,248c-3.7,1.9-6.5,4.1-8.4,7.2
			c-5.5,9.2,0.8,22.6,11.8,25.1c7.7,1.8,15-1.9,18.4-9.3c0.3-0.7,0.2-1.9,1.1-2c1-0.1,1.2,1.2,1.6,1.9c14.9,27.6-1.6,62.5-32.7,69.4
			c-31.3,6.9-60.8-17.4-59.8-49.4c0.7-21.5,17.9-43,42-46.2C273.7,243.5,282.2,244.3,290.9,248z"/>
	</g>
</g>
<g>
	
		<linearGradient id="SVGID_00000003809418158176639150000008381867320079521442_" gradientUnits="userSpaceOnUse" x1="637.6274" y1="365.7596" x2="675.103" y2="365.7596">
		<stop  offset="2.077088e-02" style="stop-color:#391E89"/>
		<stop  offset="0.5254" style="stop-color:#482A9C"/>
		<stop  offset="1" style="stop-color:#5333A9"/>
	</linearGradient>
	<path style="fill:url(#SVGID_00000003809418158176639150000008381867320079521442_);" d="M637.6,386.4l10.6-41.3h16.2l10.6,41.3
		h-5.3l-3.2-12.1h-20.4l-3.2,12.1H637.6z M647.4,369.3h18l-5-19.2h-8L647.4,369.3z"/>
	
		<linearGradient id="SVGID_00000028304643708960718320000008655896085426496185_" gradientUnits="userSpaceOnUse" x1="681.0034" y1="365.7596" x2="686.3149" y2="365.7596">
		<stop  offset="2.077088e-02" style="stop-color:#391E89"/>
		<stop  offset="0.5254" style="stop-color:#482A9C"/>
		<stop  offset="1" style="stop-color:#5333A9"/>
	</linearGradient>
	<path style="fill:url(#SVGID_00000028304643708960718320000008655896085426496185_);" d="M681,386.4v-41.3h5.3v41.3H681z"/>
	
		<linearGradient id="SVGID_00000158716210255651623880000007220202867572704138_" gradientUnits="userSpaceOnUse" x1="694.5776" y1="370.1858" x2="715.8232" y2="370.1858">
		<stop  offset="2.077088e-02" style="stop-color:#391E89"/>
		<stop  offset="0.5254" style="stop-color:#482A9C"/>
		<stop  offset="1" style="stop-color:#5333A9"/>
	</linearGradient>
	<path style="fill:url(#SVGID_00000158716210255651623880000007220202867572704138_);" d="M694.6,372.5v-4.7h21.2v4.7H694.6z"/>
	
		<linearGradient id="SVGID_00000079478916924126513920000012233997425360286867_" gradientUnits="userSpaceOnUse" x1="724.085" y1="365.7596" x2="756.8389" y2="365.7596">
		<stop  offset="2.077088e-02" style="stop-color:#391E89"/>
		<stop  offset="0.5254" style="stop-color:#482A9C"/>
		<stop  offset="1" style="stop-color:#5333A9"/>
	</linearGradient>
	<path style="fill:url(#SVGID_00000079478916924126513920000012233997425360286867_);" d="M724.1,386.4v-41.3h17.4
		c4.6,0,8.4,1.3,11.2,3.8c2.8,2.6,4.2,5.8,4.2,9.7c0,3.9-1.4,7.2-4.2,9.7c-2.8,2.6-6.5,3.8-11.2,3.8h-12.1v14.2H724.1z M729.4,367.2
		h12.1c3.2,0,5.7-0.8,7.4-2.3c1.8-1.6,2.6-3.6,2.6-6.2s-0.9-4.7-2.6-6.2c-1.8-1.6-4.2-2.3-7.4-2.3h-12.1V367.2z"/>
	
		<linearGradient id="SVGID_00000111887289084730292190000003713350995293379464_" gradientUnits="userSpaceOnUse" x1="760.3804" y1="371.6609" x2="791.0684" y2="371.6609">
		<stop  offset="2.077088e-02" style="stop-color:#391E89"/>
		<stop  offset="0.5254" style="stop-color:#482A9C"/>
		<stop  offset="1" style="stop-color:#5333A9"/>
	</linearGradient>
	<path style="fill:url(#SVGID_00000111887289084730292190000003713350995293379464_);" d="M764.7,382.6c-2.9-2.9-4.4-6.6-4.4-11
		s1.5-8.1,4.4-11c2.9-2.9,6.6-4.4,11-4.4c4.4,0,8.1,1.5,11,4.4c2.9,2.9,4.4,6.6,4.4,11s-1.5,8.1-4.4,11c-2.9,2.9-6.6,4.4-11,4.4
		C771.3,387,767.7,385.6,764.7,382.6z M768.1,363.8c-2,2-3,4.7-3,7.8s1,5.8,3,7.8c2,2,4.5,3.1,7.6,3.1s5.6-1,7.6-3.1
		c2-2,3-4.7,3-7.8s-1-5.8-3-7.8c-2-2-4.5-3.1-7.6-3.1S770.1,361.8,768.1,363.8z"/>
	
		<linearGradient id="SVGID_00000098204381915651141540000003310619252214649775_" gradientUnits="userSpaceOnUse" x1="795.1987" y1="371.6614" x2="837.395" y2="371.6614">
		<stop  offset="2.077088e-02" style="stop-color:#391E89"/>
		<stop  offset="0.5254" style="stop-color:#482A9C"/>
		<stop  offset="1" style="stop-color:#5333A9"/>
	</linearGradient>
	<path style="fill:url(#SVGID_00000098204381915651141540000003310619252214649775_);" d="M795.2,356.9h5l5.3,25.1h1.5l5-25.1h8.6
		l5,25.1h1.5l5.3-25.1h5l-6.5,29.5h-9.1l-5-25.1h-0.9l-5,25.1h-9.1L795.2,356.9z"/>
	
		<linearGradient id="SVGID_00000016780004185637172740000013657244709495486087_" gradientUnits="userSpaceOnUse" x1="841.5264" y1="371.6609" x2="871.6245" y2="371.6609">
		<stop  offset="2.077088e-02" style="stop-color:#391E89"/>
		<stop  offset="0.5254" style="stop-color:#482A9C"/>
		<stop  offset="1" style="stop-color:#5333A9"/>
	</linearGradient>
	<path style="fill:url(#SVGID_00000016780004185637172740000013657244709495486087_);" d="M845.8,382.6c-2.9-2.9-4.3-6.6-4.3-11
		s1.4-8.1,4.3-11c2.9-2.9,6.5-4.4,10.7-4.4c4.3,0,7.9,1.4,10.7,4.3c2.9,2.9,4.3,6.5,4.3,10.7v1.8h-25.4c0.3,2.8,1.4,5,3.4,6.8
		c1.9,1.8,4.2,2.7,7,2.7c2.9,0,5.4-0.9,7.5-2.7c0.9-0.8,1.7-1.7,2.2-2.7h4.7c-0.7,1.8-1.7,3.5-3,4.9c-3.1,3.2-6.9,4.8-11.4,4.8
		C852.3,387,848.7,385.6,845.8,382.6z M846.4,369h20.2c-0.4-2.3-1.4-4.3-3.2-5.9c-1.8-1.6-4.1-2.4-6.8-2.4s-5,0.8-6.8,2.4
		C847.9,364.7,846.8,366.7,846.4,369z"/>
	
		<linearGradient id="SVGID_00000146457234640917396330000010824898253202576774_" gradientUnits="userSpaceOnUse" x1="878.1162" y1="371.5139" x2="895.5259" y2="371.5139">
		<stop  offset="2.077088e-02" style="stop-color:#391E89"/>
		<stop  offset="0.5254" style="stop-color:#482A9C"/>
		<stop  offset="1" style="stop-color:#5333A9"/>
	</linearGradient>
	<path style="fill:url(#SVGID_00000146457234640917396330000010824898253202576774_);" d="M878.1,386.4v-29.5h4.7v4.7h0.1
		c0.6-1,1.2-1.8,2-2.5c1.9-1.7,4.3-2.5,7.1-2.5h3.5v4.7H892c-2.7,0-4.9,0.9-6.6,2.6s-2.6,3.9-2.6,6.6v15.9H878.1z"/>
	
		<linearGradient id="SVGID_00000070816792978750694570000013578767029578706852_" gradientUnits="userSpaceOnUse" x1="898.771" y1="371.6609" x2="928.8691" y2="371.6609">
		<stop  offset="2.077088e-02" style="stop-color:#391E89"/>
		<stop  offset="0.5254" style="stop-color:#482A9C"/>
		<stop  offset="1" style="stop-color:#5333A9"/>
	</linearGradient>
	<path style="fill:url(#SVGID_00000070816792978750694570000013578767029578706852_);" d="M903.1,382.6c-2.9-2.9-4.3-6.6-4.3-11
		s1.4-8.1,4.3-11c2.9-2.9,6.5-4.4,10.7-4.4c4.3,0,7.9,1.4,10.7,4.3c2.9,2.9,4.3,6.5,4.3,10.7v1.8h-25.4c0.3,2.8,1.4,5,3.4,6.8
		c1.9,1.8,4.2,2.7,7,2.7c2.9,0,5.4-0.9,7.5-2.7c0.9-0.8,1.7-1.7,2.2-2.7h4.7c-0.7,1.8-1.7,3.5-3,4.9c-3.1,3.2-6.9,4.8-11.4,4.8
		C909.5,387,906,385.6,903.1,382.6z M903.6,369h20.2c-0.4-2.3-1.4-4.3-3.2-5.9c-1.8-1.6-4.1-2.4-6.8-2.4s-5,0.8-6.8,2.4
		C905.1,364.7,904,366.7,903.6,369z"/>
	
		<linearGradient id="SVGID_00000137101431126366855380000012680424715912871091_" gradientUnits="userSpaceOnUse" x1="933.5903" y1="366.0545" x2="963.0981" y2="366.0545">
		<stop  offset="2.077088e-02" style="stop-color:#391E89"/>
		<stop  offset="0.5254" style="stop-color:#482A9C"/>
		<stop  offset="1" style="stop-color:#5333A9"/>
	</linearGradient>
	<path style="fill:url(#SVGID_00000137101431126366855380000012680424715912871091_);" d="M937.7,382.6c-2.8-2.9-4.1-6.6-4.1-10.9
		s1.4-8,4.1-10.9c2.8-2.9,6.1-4.4,10-4.4c2.5,0,4.6,0.5,6.3,1.4c1.7,0.9,3,1.9,3.7,3l0.5,0.9h0.1v-16.5h4.7v41.3h-4.7v-4.7h-0.1
		l-0.5,0.8c-0.7,1.1-1.9,2.1-3.7,3c-1.7,1-3.9,1.4-6.4,1.4C943.8,387,940.5,385.5,937.7,382.6z M941.2,363.8c-1.9,2-2.9,4.7-2.9,7.8
		s1,5.8,2.9,7.8c1.9,2,4.3,3.1,7.2,3.1c2.9,0,5.3-1,7.2-3.1c1.9-2,2.9-4.7,2.9-7.8s-1-5.8-2.9-7.8c-1.9-2-4.3-3.1-7.2-3.1
		C945.5,360.7,943.1,361.8,941.2,363.8z"/>
	
		<linearGradient id="SVGID_00000052064151691960893780000008526350547678353305_" gradientUnits="userSpaceOnUse" x1="981.3936" y1="365.7596" x2="1015.0322" y2="365.7596">
		<stop  offset="2.077088e-02" style="stop-color:#391E89"/>
		<stop  offset="0.5254" style="stop-color:#482A9C"/>
		<stop  offset="1" style="stop-color:#5333A9"/>
	</linearGradient>
	<path style="fill:url(#SVGID_00000052064151691960893780000008526350547678353305_);" d="M981.4,350.1v-5h33.6v5h-14.2v36.3h-5.3
		v-36.3H981.4z"/>
	
		<linearGradient id="SVGID_00000130635205058461920970000012520298156993702295_" gradientUnits="userSpaceOnUse" x1="1015.6221" y1="371.6609" x2="1046.3105" y2="371.6609">
		<stop  offset="2.077088e-02" style="stop-color:#391E89"/>
		<stop  offset="0.5254" style="stop-color:#482A9C"/>
		<stop  offset="1" style="stop-color:#5333A9"/>
	</linearGradient>
	<path style="fill:url(#SVGID_00000130635205058461920970000012520298156993702295_);" d="M1020,382.6c-2.9-2.9-4.4-6.6-4.4-11
		s1.5-8.1,4.4-11c2.9-2.9,6.6-4.4,11-4.4c4.4,0,8.1,1.5,11,4.4c2.9,2.9,4.4,6.6,4.4,11s-1.5,8.1-4.4,11c-2.9,2.9-6.6,4.4-11,4.4
		C1026.6,387,1022.9,385.6,1020,382.6z M1023.4,363.8c-2,2-3,4.7-3,7.8s1,5.8,3,7.8c2,2,4.5,3.1,7.6,3.1c3.1,0,5.6-1,7.6-3.1
		c2-2,3-4.7,3-7.8s-1-5.8-3-7.8c-2-2-4.5-3.1-7.6-3.1C1027.9,360.7,1025.4,361.8,1023.4,363.8z"/>
	
		<linearGradient id="SVGID_00000054260214651485220240000001630146699975938469_" gradientUnits="userSpaceOnUse" x1="1051.0312" y1="371.6609" x2="1081.7197" y2="371.6609">
		<stop  offset="2.077088e-02" style="stop-color:#391E89"/>
		<stop  offset="0.5254" style="stop-color:#482A9C"/>
		<stop  offset="1" style="stop-color:#5333A9"/>
	</linearGradient>
	<path style="fill:url(#SVGID_00000054260214651485220240000001630146699975938469_);" d="M1055.4,382.6c-2.9-2.9-4.4-6.6-4.4-11
		s1.5-8.1,4.4-11c2.9-2.9,6.6-4.4,11-4.4c4.4,0,8.1,1.5,11,4.4c2.9,2.9,4.4,6.6,4.4,11s-1.5,8.1-4.4,11c-2.9,2.9-6.6,4.4-11,4.4
		C1062,387,1058.3,385.6,1055.4,382.6z M1058.8,363.8c-2,2-3,4.7-3,7.8s1,5.8,3,7.8c2,2,4.5,3.1,7.6,3.1c3.1,0,5.6-1,7.6-3.1
		c2-2,3-4.7,3-7.8s-1-5.8-3-7.8c-2-2-4.5-3.1-7.6-3.1C1063.3,360.7,1060.8,361.8,1058.8,363.8z"/>
	
		<linearGradient id="SVGID_00000102538664721908545540000003789821023323518114_" gradientUnits="userSpaceOnUse" x1="1088.2109" y1="365.7596" x2="1099.7197" y2="365.7596">
		<stop  offset="2.077088e-02" style="stop-color:#391E89"/>
		<stop  offset="0.5254" style="stop-color:#482A9C"/>
		<stop  offset="1" style="stop-color:#5333A9"/>
	</linearGradient>
	<path style="fill:url(#SVGID_00000102538664721908545540000003789821023323518114_);" d="M1088.2,386.4v-41.3h4.7V382h6.8v4.4
		H1088.2z"/>
	
		<linearGradient id="SVGID_00000095326756899142229030000012565157273140623801_" gradientUnits="userSpaceOnUse" x1="1118.3096" y1="365.7596" x2="1136.3096" y2="365.7596">
		<stop  offset="2.077088e-02" style="stop-color:#391E89"/>
		<stop  offset="0.5254" style="stop-color:#482A9C"/>
		<stop  offset="1" style="stop-color:#5333A9"/>
	</linearGradient>
	<path style="fill:url(#SVGID_00000095326756899142229030000012565157273140623801_);" d="M1118.3,361.3v-4.4h3.8v-11.8h14.2v4.4
		h-9.4v7.4h7.7v4.4h-7.7v25.1h-4.7v-25.1H1118.3z"/>
	
		<linearGradient id="SVGID_00000093146351398334753650000012300257376980110235_" gradientUnits="userSpaceOnUse" x1="1137.7832" y1="371.6609" x2="1168.4717" y2="371.6609">
		<stop  offset="2.077088e-02" style="stop-color:#391E89"/>
		<stop  offset="0.5254" style="stop-color:#482A9C"/>
		<stop  offset="1" style="stop-color:#5333A9"/>
	</linearGradient>
	<path style="fill:url(#SVGID_00000093146351398334753650000012300257376980110235_);" d="M1142.2,382.6c-2.9-2.9-4.4-6.6-4.4-11
		s1.5-8.1,4.4-11c2.9-2.9,6.6-4.4,11-4.4c4.4,0,8.1,1.5,11,4.4c2.9,2.9,4.4,6.6,4.4,11s-1.5,8.1-4.4,11c-2.9,2.9-6.6,4.4-11,4.4
		C1148.7,387,1145.1,385.6,1142.2,382.6z M1145.5,363.8c-2,2-3,4.7-3,7.8s1,5.8,3,7.8c2,2,4.5,3.1,7.6,3.1c3.1,0,5.6-1,7.6-3.1
		c2-2,3-4.7,3-7.8s-1-5.8-3-7.8c-2-2-4.5-3.1-7.6-3.1C1150.1,360.7,1147.5,361.8,1145.5,363.8z"/>
	
		<linearGradient id="SVGID_00000072239041991470487220000006993780774919413915_" gradientUnits="userSpaceOnUse" x1="1174.9629" y1="371.5139" x2="1192.373" y2="371.5139">
		<stop  offset="2.077088e-02" style="stop-color:#391E89"/>
		<stop  offset="0.5254" style="stop-color:#482A9C"/>
		<stop  offset="1" style="stop-color:#5333A9"/>
	</linearGradient>
	<path style="fill:url(#SVGID_00000072239041991470487220000006993780774919413915_);" d="M1175,386.4v-29.5h4.7v4.7h0.1
		c0.6-1,1.2-1.8,2-2.5c1.9-1.7,4.3-2.5,7.1-2.5h3.5v4.7h-3.5c-2.7,0-4.9,0.9-6.6,2.6c-1.7,1.7-2.6,3.9-2.6,6.6v15.9H1175z"/>
	
		<linearGradient id="SVGID_00000015338917857912157570000012505017977936083126_" gradientUnits="userSpaceOnUse" x1="1214.5039" y1="365.7596" x2="1247.2578" y2="365.7596">
		<stop  offset="2.077088e-02" style="stop-color:#391E89"/>
		<stop  offset="0.5254" style="stop-color:#482A9C"/>
		<stop  offset="1" style="stop-color:#5333A9"/>
	</linearGradient>
	<path style="fill:url(#SVGID_00000015338917857912157570000012505017977936083126_);" d="M1214.5,386.4v-41.3h17.7
		c4.6,0,8.3,1.2,11,3.7c2.7,2.4,4.1,5.5,4.1,9.3c0,3.1-1,5.8-2.9,8c-1.9,2.2-4.6,3.7-8.1,4.4l10.6,15.9h-6.2l-10-15.3h-10.9v15.3
		H1214.5z M1219.8,366.1h12.4c3.2,0,5.6-0.7,7.3-2.2c1.7-1.4,2.5-3.4,2.5-5.8c0-2.4-0.8-4.4-2.5-5.8c-1.7-1.4-4.1-2.2-7.3-2.2h-12.4
		V366.1z"/>
	
		<linearGradient id="SVGID_00000176750394352102560790000007046826976616177310_" gradientUnits="userSpaceOnUse" x1="1253.4541" y1="365.6121" x2="1259.9453" y2="365.6121">
		<stop  offset="2.077088e-02" style="stop-color:#391E89"/>
		<stop  offset="0.5254" style="stop-color:#482A9C"/>
		<stop  offset="1" style="stop-color:#5333A9"/>
	</linearGradient>
	<path style="fill:url(#SVGID_00000176750394352102560790000007046826976616177310_);" d="M1254.4,350.4c-0.6-0.6-0.9-1.4-0.9-2.3
		c0-0.9,0.3-1.7,0.9-2.3c0.6-0.6,1.4-0.9,2.3-0.9c0.9,0,1.7,0.3,2.3,0.9c0.6,0.6,0.9,1.4,0.9,2.3c0,0.9-0.3,1.7-0.9,2.3
		c-0.6,0.6-1.4,0.9-2.3,0.9C1255.8,351.3,1255,351,1254.4,350.4z M1254.3,386.4v-29.5h4.7v29.5H1254.3z"/>
	
		<linearGradient id="SVGID_00000066483526687286764860000016585157368147120802_" gradientUnits="userSpaceOnUse" x1="1265.2559" y1="371.6609" x2="1290.9277" y2="371.6609">
		<stop  offset="2.077088e-02" style="stop-color:#391E89"/>
		<stop  offset="0.5254" style="stop-color:#482A9C"/>
		<stop  offset="1" style="stop-color:#5333A9"/>
	</linearGradient>
	<path style="fill:url(#SVGID_00000066483526687286764860000016585157368147120802_);" d="M1265.3,377.3h5c0.4,1.1,1,1.9,1.7,2.7
		c1.8,1.8,4.1,2.7,6.8,2.7c2.5,0,4.4-0.4,5.6-1.2s1.8-1.9,1.8-3.2c0-0.7-0.2-1.3-0.7-1.8c-0.5-0.5-1.3-1-2.4-1.4
		c-1.1-0.4-2.1-0.7-2.9-0.9c-0.8-0.2-2.1-0.5-3.7-0.8c-6.5-1.3-9.7-4.2-9.7-8.7c0-2.3,1-4.3,3-5.9c2-1.6,4.7-2.4,8.3-2.4
		c4.4,0,7.9,1.5,10.4,4.4c1,1.3,1.8,2.8,2.2,4.4h-5c-0.4-0.8-0.9-1.5-1.5-2.2c-1.5-1.5-3.5-2.2-6.1-2.2c-2.1,0-3.7,0.4-4.8,1.2
		s-1.7,1.7-1.7,2.7c0,0.7,0.2,1.3,0.7,1.8c0.5,0.5,1.3,1,2.4,1.4c1.1,0.4,2.1,0.7,2.9,0.9c0.8,0.2,2.1,0.5,3.7,0.8
		c6.5,1.3,9.7,4.2,9.7,8.7c0,2.5-1.1,4.6-3.2,6.3c-2.1,1.7-5.1,2.5-8.9,2.5c-4.8,0-8.5-1.6-11.1-4.8
		C1266.6,380.7,1265.8,379.1,1265.3,377.3z"/>
	
		<linearGradient id="SVGID_00000096026503408812972420000000116161342155474349_" gradientUnits="userSpaceOnUse" x1="1297.4189" y1="365.7596" x2="1323.9766" y2="365.7596">
		<stop  offset="2.077088e-02" style="stop-color:#391E89"/>
		<stop  offset="0.5254" style="stop-color:#482A9C"/>
		<stop  offset="1" style="stop-color:#5333A9"/>
	</linearGradient>
	<path style="fill:url(#SVGID_00000096026503408812972420000000116161342155474349_);" d="M1297.4,386.4v-41.3h4.7v23.6h5.9
		l9.4-11.8h5.6l-10.9,13.9l11.8,15.6h-5.9l-10-13.3h-5.9v13.3H1297.4z"/>
	
		<linearGradient id="SVGID_00000090261340975347524960000007340330186423100821_" gradientUnits="userSpaceOnUse" x1="1343.1562" y1="365.76" x2="1375.9102" y2="365.76">
		<stop  offset="2.077088e-02" style="stop-color:#391E89"/>
		<stop  offset="0.5254" style="stop-color:#482A9C"/>
		<stop  offset="1" style="stop-color:#5333A9"/>
	</linearGradient>
	<path style="fill:url(#SVGID_00000090261340975347524960000007340330186423100821_);" d="M1343.2,374.6h5.3c0.4,1.5,1.1,2.8,2.1,4
		c2.2,2.6,5.4,4,9.7,4c3.4,0,6-0.7,7.7-2c1.8-1.3,2.6-3,2.6-5.1c0-1.7-0.7-3.1-2.1-4.1c-1.4-1-3.4-1.9-6-2.7
		c-0.5-0.2-1.2-0.4-2.3-0.6c-1-0.3-1.9-0.5-2.4-0.6s-1.4-0.4-2.4-0.7c-1-0.3-1.8-0.6-2.4-0.9c-0.6-0.3-1.3-0.6-2.1-1s-1.5-0.8-2-1.2
		c-0.5-0.4-1-0.9-1.6-1.4c-0.6-0.6-1-1.2-1.3-1.8c-0.3-0.6-0.6-1.3-0.8-2.1c-0.2-0.8-0.3-1.6-0.3-2.5c0-3.2,1.4-6,4.1-8.3
		c2.7-2.3,6.3-3.5,10.7-3.5c5.8,0,10.2,1.9,13.2,5.8c1.3,1.7,2.2,3.6,2.7,5.7h-5.3c-0.4-1.1-1-2.2-1.9-3.2c-2.2-2.2-5.1-3.2-8.7-3.2
		c-3,0-5.3,0.7-6.9,2c-1.7,1.3-2.5,2.9-2.5,4.8c0,0.9,0.3,1.7,0.8,2.5c0.5,0.7,1.1,1.4,1.8,1.9c0.7,0.5,1.7,1,3,1.5
		c1.3,0.5,2.4,0.9,3.4,1.2c1,0.3,2.3,0.6,3.9,1c1.8,0.5,3.4,1,4.8,1.6c1.4,0.6,2.7,1.3,4,2.2c1.3,0.9,2.3,2,3,3.4
		c0.7,1.3,1,2.9,1,4.6c0,3.4-1.4,6.2-4.2,8.6c-2.8,2.3-6.6,3.5-11.4,3.5c-6.3,0-11.1-2.2-14.2-6.5
		C1344.7,379.3,1343.7,377.1,1343.2,374.6z"/>
	
		<linearGradient id="SVGID_00000136383192692772080510000013243259041428725908_" gradientUnits="userSpaceOnUse" x1="1380.042" y1="368.4153" x2="1398.3369" y2="368.4153">
		<stop  offset="2.077088e-02" style="stop-color:#391E89"/>
		<stop  offset="0.5254" style="stop-color:#482A9C"/>
		<stop  offset="1" style="stop-color:#5333A9"/>
	</linearGradient>
	<path style="fill:url(#SVGID_00000136383192692772080510000013243259041428725908_);" d="M1380,361.3v-4.4h3.8v-6.5h4.7v6.5h9.4
		v4.4h-9.4V382h9.7v4.4h-14.5v-25.1H1380z"/>
	
		<linearGradient id="SVGID_00000020395472978300345490000004709345796751024566_" gradientUnits="userSpaceOnUse" x1="1404.2373" y1="371.5139" x2="1421.6475" y2="371.5139">
		<stop  offset="2.077088e-02" style="stop-color:#391E89"/>
		<stop  offset="0.5254" style="stop-color:#482A9C"/>
		<stop  offset="1" style="stop-color:#5333A9"/>
	</linearGradient>
	<path style="fill:url(#SVGID_00000020395472978300345490000004709345796751024566_);" d="M1404.2,386.4v-29.5h4.7v4.7h0.1
		c0.6-1,1.2-1.8,2-2.5c1.9-1.7,4.3-2.5,7.1-2.5h3.5v4.7h-3.5c-2.7,0-4.9,0.9-6.6,2.6c-1.7,1.7-2.6,3.9-2.6,6.6v15.9H1404.2z"/>
	
		<linearGradient id="SVGID_00000155118195654784989910000007312452920895003531_" gradientUnits="userSpaceOnUse" x1="1424.8926" y1="371.6609" x2="1454.4014" y2="371.6609">
		<stop  offset="2.077088e-02" style="stop-color:#391E89"/>
		<stop  offset="0.5254" style="stop-color:#482A9C"/>
		<stop  offset="1" style="stop-color:#5333A9"/>
	</linearGradient>
	<path style="fill:url(#SVGID_00000155118195654784989910000007312452920895003531_);" d="M1429,382.6c-2.8-2.9-4.1-6.6-4.1-10.9
		s1.4-8,4.1-10.9c2.8-2.9,6.1-4.4,10-4.4c2.5,0,4.6,0.5,6.3,1.4c1.7,0.9,3,2,3.7,3.1l0.5,0.9h0.1v-4.8h4.7v29.5h-4.7v-4.7h-0.1
		l-0.5,0.8c-0.7,1.1-1.9,2.1-3.7,3c-1.7,1-3.9,1.4-6.4,1.4C1435.1,387,1431.8,385.5,1429,382.6z M1432.5,363.8
		c-1.9,2-2.9,4.7-2.9,7.8s1,5.8,2.9,7.8c1.9,2,4.3,3.1,7.2,3.1s5.3-1,7.2-3.1c1.9-2,2.9-4.7,2.9-7.8s-1-5.8-2.9-7.8
		c-1.9-2-4.3-3.1-7.2-3.1S1434.4,361.8,1432.5,363.8z"/>
	
		<linearGradient id="SVGID_00000078040296795868583540000004562716918189469112_" gradientUnits="userSpaceOnUse" x1="1460.0068" y1="368.4153" x2="1478.3018" y2="368.4153">
		<stop  offset="2.077088e-02" style="stop-color:#391E89"/>
		<stop  offset="0.5254" style="stop-color:#482A9C"/>
		<stop  offset="1" style="stop-color:#5333A9"/>
	</linearGradient>
	<path style="fill:url(#SVGID_00000078040296795868583540000004562716918189469112_);" d="M1460,361.3v-4.4h3.8v-6.5h4.7v6.5h9.4
		v4.4h-9.4V382h9.7v4.4h-14.5v-25.1H1460z"/>
	
		<linearGradient id="SVGID_00000079450993297919757680000004276610757080828831_" gradientUnits="userSpaceOnUse" x1="1483.3174" y1="365.6121" x2="1489.8086" y2="365.6121">
		<stop  offset="2.077088e-02" style="stop-color:#391E89"/>
		<stop  offset="0.5254" style="stop-color:#482A9C"/>
		<stop  offset="1" style="stop-color:#5333A9"/>
	</linearGradient>
	<path style="fill:url(#SVGID_00000079450993297919757680000004276610757080828831_);" d="M1484.3,350.4c-0.6-0.6-0.9-1.4-0.9-2.3
		c0-0.9,0.3-1.7,0.9-2.3c0.6-0.6,1.4-0.9,2.3-0.9c0.9,0,1.7,0.3,2.3,0.9c0.6,0.6,0.9,1.4,0.9,2.3c0,0.9-0.3,1.7-0.9,2.3
		c-0.6,0.6-1.4,0.9-2.3,0.9C1485.7,351.3,1484.9,351,1484.3,350.4z M1484.2,386.4v-29.5h4.7v29.5H1484.2z"/>
	
		<linearGradient id="SVGID_00000007389185853555559650000004562468936833330063_" gradientUnits="userSpaceOnUse" x1="1494.5293" y1="365.7596" x2="1521.0859" y2="365.7596">
		<stop  offset="2.077088e-02" style="stop-color:#391E89"/>
		<stop  offset="0.5254" style="stop-color:#482A9C"/>
		<stop  offset="1" style="stop-color:#5333A9"/>
	</linearGradient>
	<path style="fill:url(#SVGID_00000007389185853555559650000004562468936833330063_);" d="M1494.5,361.3v-4.4h3.8v-11.8h19.8v4.4
		h-15v7.4h18v29.5h-4.7v-25.1h-13.3v25.1h-4.7v-25.1H1494.5z"/>
	
		<linearGradient id="SVGID_00000114793468437653562900000009250992075346666122_" gradientUnits="userSpaceOnUse" x1="1527.5781" y1="371.6609" x2="1556.791" y2="371.6609">
		<stop  offset="2.077088e-02" style="stop-color:#391E89"/>
		<stop  offset="0.5254" style="stop-color:#482A9C"/>
		<stop  offset="1" style="stop-color:#5333A9"/>
	</linearGradient>
	<path style="fill:url(#SVGID_00000114793468437653562900000009250992075346666122_);" d="M1531.8,382.6c-2.8-2.9-4.2-6.6-4.2-11
		s1.4-8.1,4.2-11c2.8-2.9,6.3-4.4,10.5-4.4c4.8,0,8.7,1.7,11.5,5.2c1.2,1.5,2.1,3.2,2.7,5.1h-4.7c-0.4-1.1-1.1-2-1.9-3
		c-1.9-2-4.4-3-7.5-3c-2.9,0-5.3,1-7.2,3.1c-1.9,2-2.9,4.7-2.9,7.8s1,5.8,3,7.8c2,2,4.3,3.1,7.1,3.1c3.2,0,5.8-1.1,7.7-3.2
		c0.9-0.9,1.5-2,2-3.2h4.7c-0.5,2-1.4,3.8-2.7,5.5c-3,3.6-6.9,5.4-11.7,5.4C1538.2,387,1534.7,385.6,1531.8,382.6z"/>
	
		<linearGradient id="SVGID_00000155859811921425383530000001235747448179862695_" gradientUnits="userSpaceOnUse" x1="1560.9209" y1="371.6609" x2="1590.4297" y2="371.6609">
		<stop  offset="2.077088e-02" style="stop-color:#391E89"/>
		<stop  offset="0.5254" style="stop-color:#482A9C"/>
		<stop  offset="1" style="stop-color:#5333A9"/>
	</linearGradient>
	<path style="fill:url(#SVGID_00000155859811921425383530000001235747448179862695_);" d="M1565.1,382.6c-2.8-2.9-4.1-6.6-4.1-10.9
		s1.4-8,4.1-10.9c2.8-2.9,6.1-4.4,10-4.4c2.5,0,4.6,0.5,6.3,1.4c1.7,0.9,3,2,3.7,3.1l0.5,0.9h0.1v-4.8h4.7v29.5h-4.7v-4.7h-0.1
		l-0.5,0.8c-0.7,1.1-1.9,2.1-3.7,3c-1.7,1-3.9,1.4-6.4,1.4C1571.2,387,1567.8,385.5,1565.1,382.6z M1568.5,363.8
		c-1.9,2-2.9,4.7-2.9,7.8s1,5.8,2.9,7.8c1.9,2,4.3,3.1,7.2,3.1s5.3-1,7.2-3.1c1.9-2,2.9-4.7,2.9-7.8s-1-5.8-2.9-7.8
		c-1.9-2-4.3-3.1-7.2-3.1S1570.4,361.8,1568.5,363.8z"/>
	
		<linearGradient id="SVGID_00000178174527575120305420000003725494896099298495_" gradientUnits="userSpaceOnUse" x1="1596.0352" y1="368.4153" x2="1614.3301" y2="368.4153">
		<stop  offset="2.077088e-02" style="stop-color:#391E89"/>
		<stop  offset="0.5254" style="stop-color:#482A9C"/>
		<stop  offset="1" style="stop-color:#5333A9"/>
	</linearGradient>
	<path style="fill:url(#SVGID_00000178174527575120305420000003725494896099298495_);" d="M1596,361.3v-4.4h3.8v-6.5h4.7v6.5h9.4
		v4.4h-9.4V382h9.7v4.4h-14.5v-25.1H1596z"/>
	
		<linearGradient id="SVGID_00000101073306588137804860000001018420135148673198_" gradientUnits="userSpaceOnUse" x1="1619.3467" y1="365.6121" x2="1625.8379" y2="365.6121">
		<stop  offset="2.077088e-02" style="stop-color:#391E89"/>
		<stop  offset="0.5254" style="stop-color:#482A9C"/>
		<stop  offset="1" style="stop-color:#5333A9"/>
	</linearGradient>
	<path style="fill:url(#SVGID_00000101073306588137804860000001018420135148673198_);" d="M1620.3,350.4c-0.6-0.6-0.9-1.4-0.9-2.3
		c0-0.9,0.3-1.7,0.9-2.3c0.6-0.6,1.4-0.9,2.3-0.9c0.9,0,1.7,0.3,2.3,0.9c0.6,0.6,0.9,1.4,0.9,2.3c0,0.9-0.3,1.7-0.9,2.3
		c-0.6,0.6-1.4,0.9-2.3,0.9C1621.7,351.3,1620.9,351,1620.3,350.4z M1620.2,386.4v-29.5h4.7v29.5H1620.2z"/>
	
		<linearGradient id="SVGID_00000173119058243796398180000008958988975791976624_" gradientUnits="userSpaceOnUse" x1="1631.4434" y1="371.6609" x2="1662.1318" y2="371.6609">
		<stop  offset="2.077088e-02" style="stop-color:#391E89"/>
		<stop  offset="0.5254" style="stop-color:#482A9C"/>
		<stop  offset="1" style="stop-color:#5333A9"/>
	</linearGradient>
	<path style="fill:url(#SVGID_00000173119058243796398180000008958988975791976624_);" d="M1635.8,382.6c-2.9-2.9-4.4-6.6-4.4-11
		s1.5-8.1,4.4-11c2.9-2.9,6.6-4.4,11-4.4c4.4,0,8.1,1.5,11,4.4c2.9,2.9,4.4,6.6,4.4,11s-1.5,8.1-4.4,11c-2.9,2.9-6.6,4.4-11,4.4
		C1642.4,387,1638.7,385.6,1635.8,382.6z M1639.2,363.8c-2,2-3,4.7-3,7.8s1,5.8,3,7.8c2,2,4.5,3.1,7.6,3.1c3.1,0,5.6-1,7.6-3.1
		c2-2,3-4.7,3-7.8s-1-5.8-3-7.8c-2-2-4.5-3.1-7.6-3.1C1643.7,360.7,1641.2,361.8,1639.2,363.8z"/>
	
		<linearGradient id="SVGID_00000146479433424155737020000010454530017324282018_" gradientUnits="userSpaceOnUse" x1="1668.623" y1="371.366" x2="1695.1807" y2="371.366">
		<stop  offset="2.077088e-02" style="stop-color:#391E89"/>
		<stop  offset="0.5254" style="stop-color:#482A9C"/>
		<stop  offset="1" style="stop-color:#5333A9"/>
	</linearGradient>
	<path style="fill:url(#SVGID_00000146479433424155737020000010454530017324282018_);" d="M1668.6,386.4v-29.5h4.7v4.4h0.1
		c0.6-0.9,1.4-1.8,2.3-2.5c2.2-1.7,4.7-2.5,7.7-2.5c3.6,0,6.4,1.1,8.6,3.4c2.1,2.3,3.2,5.4,3.2,9.3v17.4h-4.7v-17.1
		c0-2.8-0.7-5-2.1-6.4c-1.4-1.4-3.4-2.2-5.8-2.2c-2.7,0-4.9,0.9-6.6,2.7s-2.5,4.1-2.5,7.1v15.9H1668.6z"/>
	
		<linearGradient id="SVGID_00000052096682982560585620000015284115671529014178_" gradientUnits="userSpaceOnUse" x1="633.0562" y1="430.2703" x2="662.564" y2="430.2703">
		<stop  offset="2.077088e-02" style="stop-color:#391E89"/>
		<stop  offset="0.5254" style="stop-color:#482A9C"/>
		<stop  offset="1" style="stop-color:#5333A9"/>
	</linearGradient>
	<path style="fill:url(#SVGID_00000052096682982560585620000015284115671529014178_);" d="M637.2,441.2c-2.8-2.9-4.1-6.6-4.1-10.9
		s1.4-8,4.1-10.9c2.8-2.9,6.1-4.4,10-4.4c2.5,0,4.6,0.5,6.3,1.4s3,2,3.7,3.1l0.5,0.9h0.1v-4.8h4.7V445h-4.7v-4.7h-0.1l-0.5,0.8
		c-0.7,1.1-1.9,2.1-3.7,3c-1.7,1-3.9,1.4-6.4,1.4C643.3,445.6,639.9,444.1,637.2,441.2z M640.6,422.4c-1.9,2-2.9,4.7-2.9,7.8
		s1,5.8,2.9,7.8c1.9,2,4.3,3.1,7.2,3.1c2.9,0,5.3-1,7.2-3.1c1.9-2,2.9-4.7,2.9-7.8s-1-5.8-2.9-7.8c-1.9-2-4.3-3.1-7.2-3.1
		C644.9,419.4,642.5,420.4,640.6,422.4z"/>
	
		<linearGradient id="SVGID_00000144309562525332520310000011338760463279218560_" gradientUnits="userSpaceOnUse" x1="670.8257" y1="429.9754" x2="697.3828" y2="429.9754">
		<stop  offset="2.077088e-02" style="stop-color:#391E89"/>
		<stop  offset="0.5254" style="stop-color:#482A9C"/>
		<stop  offset="1" style="stop-color:#5333A9"/>
	</linearGradient>
	<path style="fill:url(#SVGID_00000144309562525332520310000011338760463279218560_);" d="M670.8,445v-29.5h4.7v4.4h0.1
		c0.6-0.9,1.4-1.8,2.3-2.5c2.2-1.7,4.7-2.5,7.7-2.5c3.6,0,6.4,1.1,8.6,3.4c2.1,2.3,3.2,5.4,3.2,9.3V445h-4.7v-17.1
		c0-2.8-0.7-5-2.1-6.4c-1.4-1.4-3.4-2.2-5.8-2.2c-2.7,0-4.9,0.9-6.6,2.7c-1.7,1.8-2.5,4.1-2.5,7.1V445H670.8z"/>
	
		<linearGradient id="SVGID_00000080894306052371202270000000714329432399377841_" gradientUnits="userSpaceOnUse" x1="703.5791" y1="424.6638" x2="733.0869" y2="424.6638">
		<stop  offset="2.077088e-02" style="stop-color:#391E89"/>
		<stop  offset="0.5254" style="stop-color:#482A9C"/>
		<stop  offset="1" style="stop-color:#5333A9"/>
	</linearGradient>
	<path style="fill:url(#SVGID_00000080894306052371202270000000714329432399377841_);" d="M707.7,441.2c-2.8-2.9-4.1-6.6-4.1-10.9
		s1.4-8,4.1-10.9c2.8-2.9,6.1-4.4,10-4.4c2.5,0,4.6,0.5,6.3,1.4c1.7,0.9,3,1.9,3.7,3l0.5,0.9h0.1v-16.5h4.7V445h-4.7v-4.7h-0.1
		l-0.5,0.8c-0.7,1.1-1.9,2.1-3.7,3c-1.7,1-3.9,1.4-6.4,1.4C713.8,445.6,710.5,444.1,707.7,441.2z M711.2,422.4
		c-1.9,2-2.9,4.7-2.9,7.8s1,5.8,2.9,7.8c1.9,2,4.3,3.1,7.2,3.1c2.9,0,5.3-1,7.2-3.1c1.9-2,2.9-4.7,2.9-7.8s-1-5.8-2.9-7.8
		c-1.9-2-4.3-3.1-7.2-3.1C715.5,419.4,713.1,420.4,711.2,422.4z"/>
	
		<linearGradient id="SVGID_00000134225117931216241000000008511300339771594883_" gradientUnits="userSpaceOnUse" x1="756.1025" y1="424.3694" x2="788.8564" y2="424.3694">
		<stop  offset="2.077088e-02" style="stop-color:#391E89"/>
		<stop  offset="0.5254" style="stop-color:#482A9C"/>
		<stop  offset="1" style="stop-color:#5333A9"/>
	</linearGradient>
	<path style="fill:url(#SVGID_00000134225117931216241000000008511300339771594883_);" d="M756.1,433.2h5.3c0.4,1.5,1.1,2.8,2.1,4
		c2.2,2.6,5.4,4,9.7,4c3.4,0,6-0.7,7.7-2c1.8-1.3,2.6-3,2.6-5.1c0-1.7-0.7-3.1-2.1-4.1c-1.4-1-3.4-1.9-6-2.7
		c-0.5-0.2-1.2-0.4-2.3-0.6c-1-0.3-1.9-0.5-2.4-0.6c-0.6-0.2-1.4-0.4-2.4-0.7c-1-0.3-1.8-0.6-2.4-0.9c-0.6-0.3-1.3-0.6-2.1-1
		s-1.5-0.8-2-1.2c-0.5-0.4-1-0.9-1.6-1.4c-0.6-0.6-1-1.2-1.3-1.8c-0.3-0.6-0.6-1.3-0.8-2.1c-0.2-0.8-0.3-1.6-0.3-2.5
		c0-3.2,1.4-6,4.1-8.3c2.7-2.3,6.3-3.5,10.7-3.5c5.8,0,10.2,1.9,13.2,5.8c1.3,1.7,2.2,3.6,2.7,5.7h-5.3c-0.4-1.1-1-2.2-1.9-3.2
		c-2.2-2.2-5.1-3.2-8.7-3.2c-3,0-5.3,0.7-6.9,2c-1.7,1.3-2.5,2.9-2.5,4.8c0,0.9,0.3,1.7,0.8,2.5c0.5,0.7,1.1,1.4,1.8,1.9
		c0.7,0.5,1.7,1,3,1.5c1.3,0.5,2.4,0.9,3.4,1.2c1,0.3,2.3,0.6,3.9,1c1.8,0.5,3.4,1,4.8,1.6c1.4,0.6,2.7,1.3,4,2.2s2.3,2,3,3.4
		c0.7,1.3,1,2.9,1,4.6c0,3.4-1.4,6.2-4.2,8.6c-2.8,2.3-6.6,3.5-11.4,3.5c-6.3,0-11.1-2.2-14.2-6.5
		C757.6,437.9,756.7,435.7,756.1,433.2z"/>
	
		<linearGradient id="SVGID_00000124865151691211930040000010314260326790351537_" gradientUnits="userSpaceOnUse" x1="793.8726" y1="430.2703" x2="823.0854" y2="430.2703">
		<stop  offset="2.077088e-02" style="stop-color:#391E89"/>
		<stop  offset="0.5254" style="stop-color:#482A9C"/>
		<stop  offset="1" style="stop-color:#5333A9"/>
	</linearGradient>
	<path style="fill:url(#SVGID_00000124865151691211930040000010314260326790351537_);" d="M798.1,441.2c-2.8-2.9-4.2-6.6-4.2-11
		s1.4-8.1,4.2-11c2.8-2.9,6.3-4.4,10.5-4.4c4.8,0,8.7,1.7,11.5,5.2c1.2,1.5,2.1,3.2,2.7,5.1h-4.7c-0.4-1.1-1.1-2-1.9-3
		c-1.9-2-4.4-3-7.5-3c-2.9,0-5.3,1-7.2,3.1c-1.9,2-2.9,4.7-2.9,7.8s1,5.8,3,7.8c2,2,4.3,3.1,7.1,3.1c3.2,0,5.8-1.1,7.7-3.2
		c0.9-0.9,1.5-2,2-3.2h4.7c-0.5,2-1.4,3.8-2.7,5.5c-3,3.6-6.9,5.4-11.7,5.4C804.5,445.6,801,444.2,798.1,441.2z"/>
	
		<linearGradient id="SVGID_00000048495119329149096910000006670173881173179777_" gradientUnits="userSpaceOnUse" x1="828.9863" y1="430.1233" x2="846.396" y2="430.1233">
		<stop  offset="2.077088e-02" style="stop-color:#391E89"/>
		<stop  offset="0.5254" style="stop-color:#482A9C"/>
		<stop  offset="1" style="stop-color:#5333A9"/>
	</linearGradient>
	<path style="fill:url(#SVGID_00000048495119329149096910000006670173881173179777_);" d="M829,445v-29.5h4.7v4.7h0.1
		c0.6-1,1.2-1.8,2-2.5c1.9-1.7,4.3-2.5,7.1-2.5h3.5v4.7h-3.5c-2.7,0-4.9,0.9-6.6,2.6s-2.6,3.9-2.6,6.6V445H829z"/>
	
		<linearGradient id="SVGID_00000109714076531062640850000006425016704304620975_" gradientUnits="userSpaceOnUse" x1="849.6416" y1="430.2703" x2="879.7397" y2="430.2703">
		<stop  offset="2.077088e-02" style="stop-color:#391E89"/>
		<stop  offset="0.5254" style="stop-color:#482A9C"/>
		<stop  offset="1" style="stop-color:#5333A9"/>
	</linearGradient>
	<path style="fill:url(#SVGID_00000109714076531062640850000006425016704304620975_);" d="M853.9,441.2c-2.9-2.9-4.3-6.6-4.3-11
		s1.4-8.1,4.3-11c2.9-2.9,6.5-4.4,10.7-4.4c4.3,0,7.9,1.4,10.7,4.3c2.9,2.9,4.3,6.5,4.3,10.7v1.8h-25.4c0.3,2.8,1.4,5,3.4,6.8
		c1.9,1.8,4.2,2.7,7,2.7c2.9,0,5.4-0.9,7.5-2.7c0.9-0.8,1.7-1.7,2.2-2.7h4.7c-0.7,1.8-1.7,3.5-3,4.9c-3.1,3.2-6.9,4.8-11.4,4.8
		C860.4,445.6,856.8,444.2,853.9,441.2z M854.5,427.6h20.2c-0.4-2.3-1.4-4.3-3.2-5.9c-1.8-1.6-4.1-2.4-6.8-2.4s-5,0.8-6.8,2.4
		C856,423.3,854.9,425.3,854.5,427.6z"/>
	
		<linearGradient id="SVGID_00000165950215765650781410000006594221982182416769_" gradientUnits="userSpaceOnUse" x1="884.4604" y1="430.2703" x2="914.5586" y2="430.2703">
		<stop  offset="2.077088e-02" style="stop-color:#391E89"/>
		<stop  offset="0.5254" style="stop-color:#482A9C"/>
		<stop  offset="1" style="stop-color:#5333A9"/>
	</linearGradient>
	<path style="fill:url(#SVGID_00000165950215765650781410000006594221982182416769_);" d="M888.8,441.2c-2.9-2.9-4.3-6.6-4.3-11
		s1.4-8.1,4.3-11c2.9-2.9,6.5-4.4,10.7-4.4c4.3,0,7.9,1.4,10.7,4.3c2.9,2.9,4.3,6.5,4.3,10.7v1.8h-25.4c0.3,2.8,1.4,5,3.4,6.8
		c1.9,1.8,4.2,2.7,7,2.7c2.9,0,5.4-0.9,7.5-2.7c0.9-0.8,1.7-1.7,2.2-2.7h4.7c-0.7,1.8-1.7,3.5-3,4.9c-3.1,3.2-6.9,4.8-11.4,4.8
		C895.2,445.6,891.6,444.2,888.8,441.2z M889.3,427.6h20.2c-0.4-2.3-1.4-4.3-3.2-5.9c-1.8-1.6-4.1-2.4-6.8-2.4s-5,0.8-6.8,2.4
		C890.8,423.3,889.7,425.3,889.3,427.6z"/>
	
		<linearGradient id="SVGID_00000017505285003799113350000010467994154879578525_" gradientUnits="userSpaceOnUse" x1="921.0503" y1="429.9754" x2="947.6074" y2="429.9754">
		<stop  offset="2.077088e-02" style="stop-color:#391E89"/>
		<stop  offset="0.5254" style="stop-color:#482A9C"/>
		<stop  offset="1" style="stop-color:#5333A9"/>
	</linearGradient>
	<path style="fill:url(#SVGID_00000017505285003799113350000010467994154879578525_);" d="M921.1,445v-29.5h4.7v4.4h0.1
		c0.6-0.9,1.4-1.8,2.3-2.5c2.2-1.7,4.7-2.5,7.7-2.5c3.6,0,6.4,1.1,8.6,3.4c2.1,2.3,3.2,5.4,3.2,9.3V445h-4.7v-17.1
		c0-2.8-0.7-5-2.1-6.4c-1.4-1.4-3.4-2.2-5.8-2.2c-2.7,0-4.9,0.9-6.6,2.7c-1.7,1.8-2.5,4.1-2.5,7.1V445H921.1z"/>
	
		<linearGradient id="SVGID_00000082363951248633907410000007566521164908931244_" gradientUnits="userSpaceOnUse" x1="954.689" y1="424.2215" x2="961.1807" y2="424.2215">
		<stop  offset="2.077088e-02" style="stop-color:#391E89"/>
		<stop  offset="0.5254" style="stop-color:#482A9C"/>
		<stop  offset="1" style="stop-color:#5333A9"/>
	</linearGradient>
	<path style="fill:url(#SVGID_00000082363951248633907410000007566521164908931244_);" d="M955.6,409c-0.6-0.6-0.9-1.4-0.9-2.3
		c0-0.9,0.3-1.7,0.9-2.3c0.6-0.6,1.4-0.9,2.3-0.9c0.9,0,1.7,0.3,2.3,0.9c0.6,0.6,0.9,1.4,0.9,2.3c0,0.9-0.3,1.7-0.9,2.3
		c-0.6,0.6-1.4,0.9-2.3,0.9C957,409.9,956.3,409.6,955.6,409z M955.6,445v-29.5h4.7V445H955.6z"/>
	
		<linearGradient id="SVGID_00000147221161861430982220000007630192320091901066_" gradientUnits="userSpaceOnUse" x1="968.5571" y1="429.9754" x2="995.1143" y2="429.9754">
		<stop  offset="2.077088e-02" style="stop-color:#391E89"/>
		<stop  offset="0.5254" style="stop-color:#482A9C"/>
		<stop  offset="1" style="stop-color:#5333A9"/>
	</linearGradient>
	<path style="fill:url(#SVGID_00000147221161861430982220000007630192320091901066_);" d="M968.6,445v-29.5h4.7v4.4h0.1
		c0.6-0.9,1.4-1.8,2.3-2.5c2.2-1.7,4.7-2.5,7.7-2.5c3.6,0,6.4,1.1,8.6,3.4c2.1,2.3,3.2,5.4,3.2,9.3V445h-4.7v-17.1
		c0-2.8-0.7-5-2.1-6.4s-3.4-2.2-5.8-2.2c-2.7,0-4.9,0.9-6.6,2.7c-1.7,1.8-2.5,4.1-2.5,7.1V445H968.6z"/>
	
		<linearGradient id="SVGID_00000166649727961774062610000008310931570819840901_" gradientUnits="userSpaceOnUse" x1="1001.3096" y1="435.5818" x2="1030.8184" y2="435.5818">
		<stop  offset="2.077088e-02" style="stop-color:#391E89"/>
		<stop  offset="0.5254" style="stop-color:#482A9C"/>
		<stop  offset="1" style="stop-color:#5333A9"/>
	</linearGradient>
	<path style="fill:url(#SVGID_00000166649727961774062610000008310931570819840901_);" d="M1005.4,441.2c-2.8-2.9-4.1-6.6-4.1-10.9
		s1.4-8,4.1-10.9c2.8-2.9,6.1-4.4,10-4.4c2.5,0,4.6,0.5,6.3,1.4s3,1.9,3.7,3l0.5,0.9h0.1v-4.7h4.7v40.7h-25.4v-4.4h20.7v-11.5h-0.1
		l-0.5,0.8c-0.7,1.1-1.9,2.1-3.7,3c-1.7,1-3.9,1.4-6.4,1.4C1011.5,445.6,1008.2,444.1,1005.4,441.2z M1008.9,422.4
		c-1.9,2-2.9,4.7-2.9,7.8s1,5.8,2.9,7.8c1.9,2,4.3,3.1,7.2,3.1s5.3-1,7.2-3.1c1.9-2,2.9-4.7,2.9-7.8s-1-5.8-2.9-7.8
		c-1.9-2-4.3-3.1-7.2-3.1S1010.8,420.4,1008.9,422.4z"/>
	
		<linearGradient id="SVGID_00000025435408000022162800000008591211187576738749_" gradientUnits="userSpaceOnUse" x1="1053.833" y1="430.2703" x2="1084.5215" y2="430.2703">
		<stop  offset="2.077088e-02" style="stop-color:#391E89"/>
		<stop  offset="0.5254" style="stop-color:#482A9C"/>
		<stop  offset="1" style="stop-color:#5333A9"/>
	</linearGradient>
	<path style="fill:url(#SVGID_00000025435408000022162800000008591211187576738749_);" d="M1058.2,441.2c-2.9-2.9-4.4-6.6-4.4-11
		s1.5-8.1,4.4-11c2.9-2.9,6.6-4.4,11-4.4c4.4,0,8.1,1.5,11,4.4c2.9,2.9,4.4,6.6,4.4,11s-1.5,8.1-4.4,11c-2.9,2.9-6.6,4.4-11,4.4
		C1064.8,445.6,1061.1,444.2,1058.2,441.2z M1061.6,422.4c-2,2-3,4.7-3,7.8s1,5.8,3,7.8c2,2,4.5,3.1,7.6,3.1c3.1,0,5.6-1,7.6-3.1
		c2-2,3-4.7,3-7.8s-1-5.8-3-7.8c-2-2-4.5-3.1-7.6-3.1C1066.1,419.4,1063.6,420.4,1061.6,422.4z"/>
	
		<linearGradient id="SVGID_00000060746535575704480040000017461982734636563902_" gradientUnits="userSpaceOnUse" x1="1088.3574" y1="424.3689" x2="1106.3574" y2="424.3689">
		<stop  offset="2.077088e-02" style="stop-color:#391E89"/>
		<stop  offset="0.5254" style="stop-color:#482A9C"/>
		<stop  offset="1" style="stop-color:#5333A9"/>
	</linearGradient>
	<path style="fill:url(#SVGID_00000060746535575704480040000017461982734636563902_);" d="M1088.4,419.9v-4.4h3.8v-11.8h14.2v4.4
		h-9.4v7.4h7.7v4.4h-7.7V445h-4.7v-25.1H1088.4z"/>
	
		<linearGradient id="SVGID_00000049217879824298544520000014856805588031707542_" gradientUnits="userSpaceOnUse" x1="1126.7178" y1="424.3689" x2="1161.832" y2="424.3689">
		<stop  offset="2.077088e-02" style="stop-color:#391E89"/>
		<stop  offset="0.5254" style="stop-color:#482A9C"/>
		<stop  offset="1" style="stop-color:#5333A9"/>
	</linearGradient>
	<path style="fill:url(#SVGID_00000049217879824298544520000014856805588031707542_);" d="M1126.7,445v-41.3h13.6
		c6.2,0,11.4,2,15.4,5.9s6.1,8.9,6.1,14.7s-2,10.8-6.1,14.7s-9.2,5.9-15.4,5.9H1126.7z M1132,440h8.3c4.8,0,8.7-1.5,11.7-4.4
		c3-2.9,4.5-6.7,4.5-11.3c0-4.6-1.5-8.4-4.5-11.3c-3-2.9-6.9-4.4-11.7-4.4h-8.3V440z"/>
	
		<linearGradient id="SVGID_00000000936424698724836990000002800451910527866268_" gradientUnits="userSpaceOnUse" x1="1167.7324" y1="424.2215" x2="1174.2236" y2="424.2215">
		<stop  offset="2.077088e-02" style="stop-color:#391E89"/>
		<stop  offset="0.5254" style="stop-color:#482A9C"/>
		<stop  offset="1" style="stop-color:#5333A9"/>
	</linearGradient>
	<path style="fill:url(#SVGID_00000000936424698724836990000002800451910527866268_);" d="M1168.7,409c-0.6-0.6-0.9-1.4-0.9-2.3
		c0-0.9,0.3-1.7,0.9-2.3c0.6-0.6,1.4-0.9,2.3-0.9c0.9,0,1.7,0.3,2.3,0.9c0.6,0.6,0.9,1.4,0.9,2.3c0,0.9-0.3,1.7-0.9,2.3
		c-0.6,0.6-1.4,0.9-2.3,0.9C1170.1,409.9,1169.3,409.6,1168.7,409z M1168.6,445v-29.5h4.7V445H1168.6z"/>
	
		<linearGradient id="SVGID_00000129903260808712794470000007886906234159802782_" gradientUnits="userSpaceOnUse" x1="1179.8301" y1="430.2703" x2="1209.3389" y2="430.2703">
		<stop  offset="2.077088e-02" style="stop-color:#391E89"/>
		<stop  offset="0.5254" style="stop-color:#482A9C"/>
		<stop  offset="1" style="stop-color:#5333A9"/>
	</linearGradient>
	<path style="fill:url(#SVGID_00000129903260808712794470000007886906234159802782_);" d="M1184,441.2c-2.8-2.9-4.1-6.6-4.1-10.9
		s1.4-8,4.1-10.9c2.8-2.9,6.1-4.4,10-4.4c2.5,0,4.6,0.5,6.3,1.4c1.7,0.9,3,2,3.7,3.1l0.5,0.9h0.1v-4.8h4.7V445h-4.7v-4.7h-0.1
		l-0.5,0.8c-0.7,1.1-1.9,2.1-3.7,3c-1.7,1-3.9,1.4-6.4,1.4C1190.1,445.6,1186.7,444.1,1184,441.2z M1187.4,422.4
		c-1.9,2-2.9,4.7-2.9,7.8s1,5.8,2.9,7.8c1.9,2,4.3,3.1,7.2,3.1s5.3-1,7.2-3.1c1.9-2,2.9-4.7,2.9-7.8s-1-5.8-2.9-7.8
		c-1.9-2-4.3-3.1-7.2-3.1S1189.3,420.4,1187.4,422.4z"/>
	
		<linearGradient id="SVGID_00000127012205960570340110000016618000984621047987_" gradientUnits="userSpaceOnUse" x1="1217.5986" y1="424.6638" x2="1247.1074" y2="424.6638">
		<stop  offset="2.077088e-02" style="stop-color:#391E89"/>
		<stop  offset="0.5254" style="stop-color:#482A9C"/>
		<stop  offset="1" style="stop-color:#5333A9"/>
	</linearGradient>
	<path style="fill:url(#SVGID_00000127012205960570340110000016618000984621047987_);" d="M1217.6,445v-41.3h4.7v16.5h0.1l0.6-0.9
		c0.7-1,1.9-2,3.6-3c1.7-1,3.9-1.4,6.4-1.4c3.9,0,7.3,1.5,10,4.4s4.1,6.6,4.1,10.9s-1.4,8-4.1,10.9c-2.8,2.9-6.1,4.4-10,4.4
		c-2.5,0-4.7-0.5-6.4-1.4c-1.8-1-2.9-2-3.6-3l-0.6-0.8h-0.1v4.7H1217.6z M1225.2,422.4c-1.9,2-2.9,4.7-2.9,7.8s1,5.8,2.9,7.8
		c1.9,2,4.3,3.1,7.2,3.1s5.3-1,7.2-3.1c1.9-2,2.9-4.7,2.9-7.8s-1-5.8-2.9-7.8c-1.9-2-4.3-3.1-7.2-3.1S1227.1,420.4,1225.2,422.4z"/>
	
		<linearGradient id="SVGID_00000127733532935810676030000012946580541517988281_" gradientUnits="userSpaceOnUse" x1="1251.8271" y1="430.2703" x2="1281.9258" y2="430.2703">
		<stop  offset="2.077088e-02" style="stop-color:#391E89"/>
		<stop  offset="0.5254" style="stop-color:#482A9C"/>
		<stop  offset="1" style="stop-color:#5333A9"/>
	</linearGradient>
	<path style="fill:url(#SVGID_00000127733532935810676030000012946580541517988281_);" d="M1256.1,441.2c-2.9-2.9-4.3-6.6-4.3-11
		s1.4-8.1,4.3-11c2.9-2.9,6.5-4.4,10.7-4.4c4.3,0,7.9,1.4,10.7,4.3c2.9,2.9,4.3,6.5,4.3,10.7v1.8h-25.4c0.3,2.8,1.4,5,3.4,6.8
		c1.9,1.8,4.2,2.7,7,2.7c2.9,0,5.4-0.9,7.5-2.7c0.9-0.8,1.7-1.7,2.2-2.7h4.7c-0.7,1.8-1.7,3.5-3,4.9c-3.1,3.2-6.9,4.8-11.4,4.8
		C1262.6,445.6,1259,444.2,1256.1,441.2z M1256.7,427.6h20.2c-0.4-2.3-1.4-4.3-3.2-5.9c-1.8-1.6-4.1-2.4-6.8-2.4
		c-2.7,0-5,0.8-6.8,2.4C1258.2,423.3,1257.1,425.3,1256.7,427.6z"/>
	
		<linearGradient id="SVGID_00000014634521623088312100000010529876618407920047_" gradientUnits="userSpaceOnUse" x1="1285.7617" y1="427.0247" x2="1304.0566" y2="427.0247">
		<stop  offset="2.077088e-02" style="stop-color:#391E89"/>
		<stop  offset="0.5254" style="stop-color:#482A9C"/>
		<stop  offset="1" style="stop-color:#5333A9"/>
	</linearGradient>
	<path style="fill:url(#SVGID_00000014634521623088312100000010529876618407920047_);" d="M1285.8,419.9v-4.4h3.8V409h4.7v6.5h9.4
		v4.4h-9.4v20.7h9.7v4.4h-14.5v-25.1H1285.8z"/>
	
		<linearGradient id="SVGID_00000003820223958960475240000018260984158238752415_" gradientUnits="userSpaceOnUse" x1="1309.0732" y1="424.2215" x2="1315.5645" y2="424.2215">
		<stop  offset="2.077088e-02" style="stop-color:#391E89"/>
		<stop  offset="0.5254" style="stop-color:#482A9C"/>
		<stop  offset="1" style="stop-color:#5333A9"/>
	</linearGradient>
	<path style="fill:url(#SVGID_00000003820223958960475240000018260984158238752415_);" d="M1310,409c-0.6-0.6-0.9-1.4-0.9-2.3
		c0-0.9,0.3-1.7,0.9-2.3c0.6-0.6,1.4-0.9,2.3-0.9c0.9,0,1.7,0.3,2.3,0.9c0.6,0.6,0.9,1.4,0.9,2.3c0,0.9-0.3,1.7-0.9,2.3
		c-0.6,0.6-1.4,0.9-2.3,0.9C1311.4,409.9,1310.6,409.6,1310,409z M1310,445v-29.5h4.7V445H1310z"/>
	
		<linearGradient id="SVGID_00000073701738650159326970000017098581715828099474_" gradientUnits="userSpaceOnUse" x1="1321.1699" y1="430.2703" x2="1350.3828" y2="430.2703">
		<stop  offset="2.077088e-02" style="stop-color:#391E89"/>
		<stop  offset="0.5254" style="stop-color:#482A9C"/>
		<stop  offset="1" style="stop-color:#5333A9"/>
	</linearGradient>
	<path style="fill:url(#SVGID_00000073701738650159326970000017098581715828099474_);" d="M1325.4,441.2c-2.8-2.9-4.2-6.6-4.2-11
		s1.4-8.1,4.2-11c2.8-2.9,6.3-4.4,10.5-4.4c4.8,0,8.7,1.7,11.5,5.2c1.2,1.5,2.1,3.2,2.7,5.1h-4.7c-0.4-1.1-1.1-2-1.9-3
		c-1.9-2-4.4-3-7.5-3c-2.9,0-5.3,1-7.2,3.1c-1.9,2-2.9,4.7-2.9,7.8s1,5.8,3,7.8c2,2,4.3,3.1,7.1,3.1c3.2,0,5.8-1.1,7.7-3.2
		c0.9-0.9,1.5-2,2-3.2h4.7c-0.5,2-1.4,3.8-2.7,5.5c-3,3.6-6.9,5.4-11.7,5.4C1331.8,445.6,1328.3,444.2,1325.4,441.2z"/>
	
		<linearGradient id="SVGID_00000087391067394539817330000010063766388999953583_" gradientUnits="userSpaceOnUse" x1="1373.3984" y1="424.3689" x2="1406.1523" y2="424.3689">
		<stop  offset="2.077088e-02" style="stop-color:#391E89"/>
		<stop  offset="0.5254" style="stop-color:#482A9C"/>
		<stop  offset="1" style="stop-color:#5333A9"/>
	</linearGradient>
	<path style="fill:url(#SVGID_00000087391067394539817330000010063766388999953583_);" d="M1373.4,445v-41.3h17.7
		c4.6,0,8.3,1.2,11,3.7c2.7,2.4,4.1,5.5,4.1,9.3c0,3.1-1,5.8-2.9,8c-1.9,2.2-4.6,3.7-8.1,4.4l10.6,15.9h-6.2l-10-15.3h-10.9V445
		H1373.4z M1378.7,424.7h12.4c3.2,0,5.6-0.7,7.3-2.2c1.7-1.4,2.5-3.4,2.5-5.8c0-2.4-0.8-4.4-2.5-5.8c-1.7-1.4-4.1-2.2-7.3-2.2h-12.4
		V424.7z"/>
	
		<linearGradient id="SVGID_00000067927495195782432570000014206642428003631007_" gradientUnits="userSpaceOnUse" x1="1410.2832" y1="430.2703" x2="1440.3818" y2="430.2703">
		<stop  offset="2.077088e-02" style="stop-color:#391E89"/>
		<stop  offset="0.5254" style="stop-color:#482A9C"/>
		<stop  offset="1" style="stop-color:#5333A9"/>
	</linearGradient>
	<path style="fill:url(#SVGID_00000067927495195782432570000014206642428003631007_);" d="M1414.6,441.2c-2.9-2.9-4.3-6.6-4.3-11
		s1.4-8.1,4.3-11c2.9-2.9,6.5-4.4,10.7-4.4c4.3,0,7.9,1.4,10.7,4.3c2.9,2.9,4.3,6.5,4.3,10.7v1.8H1415c0.3,2.8,1.4,5,3.4,6.8
		c1.9,1.8,4.2,2.7,7,2.7c2.9,0,5.4-0.9,7.5-2.7c0.9-0.8,1.7-1.7,2.2-2.7h4.7c-0.7,1.8-1.7,3.5-3,4.9c-3.1,3.2-6.9,4.8-11.4,4.8
		C1421,445.6,1417.5,444.2,1414.6,441.2z M1415.1,427.6h20.2c-0.4-2.3-1.4-4.3-3.2-5.9c-1.8-1.6-4.1-2.4-6.8-2.4
		c-2.7,0-5,0.8-6.8,2.4C1416.6,423.3,1415.5,425.3,1415.1,427.6z"/>
	
		<linearGradient id="SVGID_00000155134548176259319500000001671830009118391226_" gradientUnits="userSpaceOnUse" x1="1444.2178" y1="427.0247" x2="1462.5127" y2="427.0247">
		<stop  offset="2.077088e-02" style="stop-color:#391E89"/>
		<stop  offset="0.5254" style="stop-color:#482A9C"/>
		<stop  offset="1" style="stop-color:#5333A9"/>
	</linearGradient>
	<path style="fill:url(#SVGID_00000155134548176259319500000001671830009118391226_);" d="M1444.2,419.9v-4.4h3.8V409h4.7v6.5h9.4
		v4.4h-9.4v20.7h9.7v4.4h-14.5v-25.1H1444.2z"/>
	
		<linearGradient id="SVGID_00000060748418258368502540000012203779672119210413_" gradientUnits="userSpaceOnUse" x1="1467.5293" y1="424.2215" x2="1474.0205" y2="424.2215">
		<stop  offset="2.077088e-02" style="stop-color:#391E89"/>
		<stop  offset="0.5254" style="stop-color:#482A9C"/>
		<stop  offset="1" style="stop-color:#5333A9"/>
	</linearGradient>
	<path style="fill:url(#SVGID_00000060748418258368502540000012203779672119210413_);" d="M1468.5,409c-0.6-0.6-0.9-1.4-0.9-2.3
		c0-0.9,0.3-1.7,0.9-2.3c0.6-0.6,1.4-0.9,2.3-0.9c0.9,0,1.7,0.3,2.3,0.9c0.6,0.6,0.9,1.4,0.9,2.3c0,0.9-0.3,1.7-0.9,2.3
		c-0.6,0.6-1.4,0.9-2.3,0.9C1469.9,409.9,1469.1,409.6,1468.5,409z M1468.4,445v-29.5h4.7V445H1468.4z"/>
	
		<linearGradient id="SVGID_00000120553650263090276500000010615602289420797329_" gradientUnits="userSpaceOnUse" x1="1481.3965" y1="429.9754" x2="1507.9541" y2="429.9754">
		<stop  offset="2.077088e-02" style="stop-color:#391E89"/>
		<stop  offset="0.5254" style="stop-color:#482A9C"/>
		<stop  offset="1" style="stop-color:#5333A9"/>
	</linearGradient>
	<path style="fill:url(#SVGID_00000120553650263090276500000010615602289420797329_);" d="M1481.4,445v-29.5h4.7v4.4h0.1
		c0.6-0.9,1.4-1.8,2.3-2.5c2.2-1.7,4.7-2.5,7.7-2.5c3.6,0,6.4,1.1,8.6,3.4c2.1,2.3,3.2,5.4,3.2,9.3V445h-4.7v-17.1
		c0-2.8-0.7-5-2.1-6.4c-1.4-1.4-3.4-2.2-5.8-2.2c-2.7,0-4.9,0.9-6.6,2.7s-2.5,4.1-2.5,7.1V445H1481.4z"/>
	
		<linearGradient id="SVGID_00000032616545875985862370000018267790397589449915_" gradientUnits="userSpaceOnUse" x1="1514.1504" y1="430.2703" x2="1544.8389" y2="430.2703">
		<stop  offset="2.077088e-02" style="stop-color:#391E89"/>
		<stop  offset="0.5254" style="stop-color:#482A9C"/>
		<stop  offset="1" style="stop-color:#5333A9"/>
	</linearGradient>
	<path style="fill:url(#SVGID_00000032616545875985862370000018267790397589449915_);" d="M1518.5,441.2c-2.9-2.9-4.4-6.6-4.4-11
		s1.5-8.1,4.4-11c2.9-2.9,6.6-4.4,11-4.4c4.4,0,8.1,1.5,11,4.4c2.9,2.9,4.4,6.6,4.4,11s-1.5,8.1-4.4,11c-2.9,2.9-6.6,4.4-11,4.4
		C1525.1,445.6,1521.4,444.2,1518.5,441.2z M1521.9,422.4c-2,2-3,4.7-3,7.8s1,5.8,3,7.8c2,2,4.5,3.1,7.6,3.1c3.1,0,5.6-1,7.6-3.1
		c2-2,3-4.7,3-7.8s-1-5.8-3-7.8c-2-2-4.5-3.1-7.6-3.1C1526.4,419.4,1523.9,420.4,1521.9,422.4z"/>
	
		<linearGradient id="SVGID_00000168804452799718441520000000524042636398623415_" gradientUnits="userSpaceOnUse" x1="1551.3291" y1="435.5818" x2="1580.8379" y2="435.5818">
		<stop  offset="2.077088e-02" style="stop-color:#391E89"/>
		<stop  offset="0.5254" style="stop-color:#482A9C"/>
		<stop  offset="1" style="stop-color:#5333A9"/>
	</linearGradient>
	<path style="fill:url(#SVGID_00000168804452799718441520000000524042636398623415_);" d="M1551.3,456.2v-40.7h4.7v4.7h0.1l0.6-0.9
		c0.7-1,1.9-2,3.6-3c1.7-1,3.9-1.4,6.4-1.4c3.9,0,7.3,1.5,10,4.4s4.1,6.6,4.1,10.9s-1.4,8-4.1,10.9c-2.8,2.9-6.1,4.4-10,4.4
		c-2.5,0-4.7-0.5-6.4-1.4c-1.8-1-2.9-2-3.6-3l-0.6-0.8h-0.1v15.9H1551.3z M1558.9,422.4c-1.9,2-2.9,4.7-2.9,7.8s1,5.8,2.9,7.8
		c1.9,2,4.3,3.1,7.2,3.1s5.3-1,7.2-3.1c1.9-2,2.9-4.7,2.9-7.8s-1-5.8-2.9-7.8c-1.9-2-4.3-3.1-7.2-3.1S1560.8,420.4,1558.9,422.4z"/>
	
		<linearGradient id="SVGID_00000160191042864731800630000017103340799956684184_" gradientUnits="userSpaceOnUse" x1="1585.5576" y1="430.2703" x2="1615.0664" y2="430.2703">
		<stop  offset="2.077088e-02" style="stop-color:#391E89"/>
		<stop  offset="0.5254" style="stop-color:#482A9C"/>
		<stop  offset="1" style="stop-color:#5333A9"/>
	</linearGradient>
	<path style="fill:url(#SVGID_00000160191042864731800630000017103340799956684184_);" d="M1589.7,441.2c-2.8-2.9-4.1-6.6-4.1-10.9
		s1.4-8,4.1-10.9c2.8-2.9,6.1-4.4,10-4.4c2.5,0,4.6,0.5,6.3,1.4c1.7,0.9,3,2,3.7,3.1l0.5,0.9h0.1v-4.8h4.7V445h-4.7v-4.7h-0.1
		l-0.5,0.8c-0.7,1.1-1.9,2.1-3.7,3c-1.7,1-3.9,1.4-6.4,1.4C1595.8,445.6,1592.4,444.1,1589.7,441.2z M1593.1,422.4
		c-1.9,2-2.9,4.7-2.9,7.8s1,5.8,2.9,7.8c1.9,2,4.3,3.1,7.2,3.1s5.3-1,7.2-3.1c1.9-2,2.9-4.7,2.9-7.8s-1-5.8-2.9-7.8
		c-1.9-2-4.3-3.1-7.2-3.1S1595,420.4,1593.1,422.4z"/>
	
		<linearGradient id="SVGID_00000106133966495172423500000004796265136808589481_" gradientUnits="userSpaceOnUse" x1="1620.6719" y1="427.0247" x2="1638.9668" y2="427.0247">
		<stop  offset="2.077088e-02" style="stop-color:#391E89"/>
		<stop  offset="0.5254" style="stop-color:#482A9C"/>
		<stop  offset="1" style="stop-color:#5333A9"/>
	</linearGradient>
	<path style="fill:url(#SVGID_00000106133966495172423500000004796265136808589481_);" d="M1620.7,419.9v-4.4h3.8V409h4.7v6.5h9.4
		v4.4h-9.4v20.7h9.7v4.4h-14.5v-25.1H1620.7z"/>
	
		<linearGradient id="SVGID_00000096746985731613167750000014150264212937326482_" gradientUnits="userSpaceOnUse" x1="1644.8682" y1="424.3689" x2="1671.4258" y2="424.3689">
		<stop  offset="2.077088e-02" style="stop-color:#391E89"/>
		<stop  offset="0.5254" style="stop-color:#482A9C"/>
		<stop  offset="1" style="stop-color:#5333A9"/>
	</linearGradient>
	<path style="fill:url(#SVGID_00000096746985731613167750000014150264212937326482_);" d="M1644.9,445v-41.3h4.7v16.2h0.1
		c0.6-0.9,1.4-1.8,2.3-2.5c2.2-1.7,4.7-2.5,7.7-2.5c3.6,0,6.4,1.1,8.6,3.4c2.1,2.3,3.2,5.4,3.2,9.3V445h-4.7v-17.1
		c0-2.8-0.7-5-2.1-6.4c-1.4-1.4-3.4-2.2-5.8-2.2c-2.7,0-4.9,0.9-6.6,2.7s-2.5,4.1-2.5,7.1V445H1644.9z"/>
	
		<linearGradient id="SVGID_00000165229279483553728780000013959117861096290460_" gradientUnits="userSpaceOnUse" x1="1676.1465" y1="435.8772" x2="1704.7686" y2="435.8772">
		<stop  offset="2.077088e-02" style="stop-color:#391E89"/>
		<stop  offset="0.5254" style="stop-color:#482A9C"/>
		<stop  offset="1" style="stop-color:#5333A9"/>
	</linearGradient>
	<path style="fill:url(#SVGID_00000165229279483553728780000013959117861096290460_);" d="M1676.1,415.5h5l6.5,25.1h4.4l7.7-25.1h5
		l-12.4,40.7h-5l3.5-11.2h-6.8L1676.1,415.5z"/>
</g>
</svg>
